<svg xmlns="http://www.w3.org/2000/svg" width="607" height="92" fill="none" viewBox="0 0 607 92">
  <path fill="url(#a)" fill-rule="evenodd" d="M589.07 21.227v52.364l9.379-8.256V29.722l-9.379-8.495Z" clip-rule="evenodd"/>
  <path fill="url(#b)" fill-rule="evenodd" d="M16.642 21.13v52.317L7.264 65.19V29.626l9.378-8.495Z" clip-rule="evenodd"/>
  <path fill="url(#c)" fill-rule="evenodd" d="M18.19 12.636h570.318v69.546H18.19V12.636Z" clip-rule="evenodd"/>
  <path fill="url(#d)" fill-rule="evenodd" d="M18.19 12.636h570.318v69.546H18.19V12.636Z" clip-rule="evenodd"/>
  <path fill="url(#e)" fill-rule="evenodd" d="m15.001 12.06 2.626 1.152 1.125-1.152-1.125-2.688-2.626 2.688Z" clip-rule="evenodd"/>
  <path fill="url(#f)" fill-rule="evenodd" d="m18.752 12.06-1.125 1.152 2.626 1.536-1.5-2.688Z" clip-rule="evenodd"/>
  <path fill="url(#g)" fill-rule="evenodd" d="M18.752 82.758h569.24l-1.548-2.688H20.253l-1.5 2.688Z" clip-rule="evenodd"/>
  <path fill="url(#h)" fill-rule="evenodd" d="M586.444 14.748V80.07l2.626 1.536V13.212l-2.626 1.536Z" clip-rule="evenodd"/>
  <path fill="url(#i)" fill-rule="evenodd" d="M20.253 14.748V80.07l-2.626 1.536V13.212l2.626 1.536Z" clip-rule="evenodd"/>
  <path fill="url(#j)" fill-rule="evenodd" d="M18.752 12.06h569.24l-1.548 2.688H20.253l-1.5-2.688Z" clip-rule="evenodd"/>
  <path fill="url(#k)" fill-rule="evenodd" d="m591.696 82.758-2.626-1.152-1.078 1.152 1.078 2.688 2.626-2.688Z" clip-rule="evenodd"/>
  <path fill="url(#l)" fill-rule="evenodd" d="m587.992 82.758 1.078-1.152-2.626-1.536 1.548 2.688Z" clip-rule="evenodd"/>
  <path fill="url(#m)" fill-rule="evenodd" d="m15.001 82.758 2.626-1.152 1.125 1.152-1.125 2.688-2.626-2.688Z" clip-rule="evenodd"/>
  <path fill="url(#n)" fill-rule="evenodd" d="m18.752 82.758-1.125-1.152 2.626-1.536-1.5 2.688Z" clip-rule="evenodd"/>
  <path fill="url(#o)" fill-rule="evenodd" d="m591.696 12.06-2.626 1.152-1.078-1.152 1.078-2.688 2.626 2.688Z" clip-rule="evenodd"/>
  <path fill="url(#p)" fill-rule="evenodd" d="m587.992 12.06 1.078 1.152-2.626 1.536 1.548-2.688Z" clip-rule="evenodd"/>
  <path fill="url(#q)" fill-rule="evenodd" d="M15.001 12.06v12.96l-7.737 4.608v35.565L15 69.799v12.96l2.626-1.153V13.212L15 12.06Z" clip-rule="evenodd"/>
  <path fill="url(#r)" fill-rule="evenodd" d="M15.001 28.09 9.89 31.162v32.493L15 66.68V28.09Z" clip-rule="evenodd"/>
  <path fill="url(#s)" fill-rule="evenodd" d="m13.688 30.442-2.485 1.488v30.958l2.485 1.488V30.442Z" clip-rule="evenodd"/>
  <path fill="url(#t)" fill-rule="evenodd" d="m598.449 29.723-6.753-4.032V12.06l-2.626 1.151v68.394l2.626 1.152V69.32l6.753-3.983V29.723Z" clip-rule="evenodd"/>
  <path fill="#fff" fill-rule="evenodd" d="M121.918 83.814h26.12v1.344h-26.12v-1.344Zm336.742 0h26.119v1.344H458.66v-1.344Z" clip-rule="evenodd"/>
  <path fill="url(#u)" fill-rule="evenodd" d="M587.991 82.758H18.752l-1.125 2.688h104.291l1.36-1.344h23.447l1.313 1.344h310.621l1.314-1.344h23.493l1.313 1.344H589.07l-1.079-2.688Z" clip-rule="evenodd"/>
  <path fill="#fff" fill-rule="evenodd" d="M121.918 11.004h26.12V9.66h-26.12v1.344Zm336.742 0h26.119V9.66H458.66v1.344Z" clip-rule="evenodd"/>
  <path fill="url(#v)" fill-rule="evenodd" d="M587.991 12.06H18.752l-1.125-2.688h104.291l1.36 1.344h23.447l1.313-1.344h310.621l1.314 1.344h23.493l1.313-1.344H589.07l-1.079 2.688Z" clip-rule="evenodd"/>
  <path fill="url(#w)" fill-rule="evenodd" d="m9.89 31.162 1.313.768 2.485-1.488 1.313-2.352-5.111 3.072Z" clip-rule="evenodd"/>
  <path fill="url(#x)" fill-rule="evenodd" d="m9.89 63.656 1.313-.768 2.485 1.488 1.313 2.303-5.111-3.023Z" clip-rule="evenodd"/>
  <path fill="url(#y)" fill-rule="evenodd" d="m9.89 63.655 1.313-.767V31.93l-1.313-.768v32.493Z" clip-rule="evenodd"/>
  <path fill="url(#z)" fill-rule="evenodd" d="M13.688 30.442v33.933l1.313 2.304V28.09l-1.313 2.352Z" clip-rule="evenodd"/>
  <path fill="url(#A)" fill-rule="evenodd" d="m590.711 28.234 5.112 3.024v32.493l-5.112 3.072V28.234Z" clip-rule="evenodd"/>
  <path fill="url(#B)" fill-rule="evenodd" d="m592.024 30.538 2.486 1.488v30.957l-2.486 1.488V30.538Z" clip-rule="evenodd"/>
  <path fill="url(#C)" fill-rule="evenodd" d="m595.823 31.258-1.313.768-2.486-1.488-1.313-2.304 5.112 3.024Z" clip-rule="evenodd"/>
  <path fill="url(#D)" fill-rule="evenodd" d="m595.823 63.752-1.313-.768-2.486 1.488-1.313 2.352 5.112-3.072Z" clip-rule="evenodd"/>
  <path fill="url(#E)" fill-rule="evenodd" d="m595.823 63.752-1.313-.768V32.026l1.313-.768v32.494Z" clip-rule="evenodd"/>
  <path fill="url(#F)" fill-rule="evenodd" d="M592.025 30.538v33.933l-1.314 2.352V28.234l1.314 2.304Z" clip-rule="evenodd"/>
  <path fill="url(#G)" fill-rule="evenodd" d="M29.022 20.363h548.606l3.283 3.36v7.151l-4.08 2.832v27.31l4.08 2.832v7.151l-3.283 3.36H29.022l-3.282-3.36v-7.151l4.08-2.832V33.754l-4.08-2.832v-7.199l3.282-3.36Zm.563 1.344L27.053 24.3v5.904l4.08 2.831v28.75l-4.08 2.832v5.903l2.532 2.592h547.528l2.532-2.592v-5.903l-4.08-2.832v-28.75l4.08-2.831V24.3l-2.532-2.592H29.585Z" clip-rule="evenodd"/>
  <g filter="url(#H)">
    <path fill="url(#I)" fill-opacity=".7" d="M594.104 67.082c4.481 0 8.113-9.025 8.113-20.158 0-11.134-3.632-20.159-8.113-20.159-4.48 0-8.112 9.025-8.112 20.158 0 11.134 3.632 20.159 8.112 20.159Z"/>
  </g>
  <g filter="url(#J)">
    <path fill="url(#K)" fill-opacity=".7" d="M12.113 67.082c4.48 0 8.112-9.025 8.112-20.158 0-11.134-3.632-20.159-8.113-20.159C7.633 26.765 4 35.79 4 46.923c0 11.134 3.632 20.159 8.113 20.159Z"/>
  </g>
  <g filter="url(#L)">
    <path fill="url(#M)" fill-opacity=".7" d="M149.987 8.469c.043-1.847-6.454-3.442-14.511-3.562-8.057-.12-14.624 1.28-14.667 3.127-.042 1.847 6.455 3.441 14.512 3.561 8.057.12 14.624-1.28 14.666-3.126Z"/>
  </g>
  <g filter="url(#N)">
    <path fill="url(#O)" fill-opacity=".7" d="M149.153 84.731c.043-1.847-6.454-3.442-14.511-3.562-8.057-.12-14.624 1.28-14.667 3.127-.042 1.847 6.455 3.441 14.512 3.562 8.057.12 14.624-1.28 14.666-3.127Z"/>
  </g>
  <g filter="url(#P)">
    <path fill="url(#Q)" fill-opacity=".7" d="M485.174 84.731c.043-1.847-6.454-3.442-14.511-3.562-8.057-.12-14.624 1.28-14.667 3.127-.042 1.847 6.455 3.441 14.512 3.562 8.057.12 14.624-1.28 14.666-3.127Z"/>
  </g>
  <g filter="url(#R)">
    <path fill="url(#S)" fill-opacity=".7" d="M486.008 9.807c.043-1.847-6.454-3.442-14.511-3.562-8.057-.12-14.624 1.28-14.667 3.127-.042 1.847 6.455 3.441 14.512 3.561 8.057.12 14.624-1.28 14.666-3.126Z"/>
  </g>
  <path stroke="#fff" stroke-width="5" d="m52.605 29 47.529 33.906"/>
  <path stroke="#fff" stroke-width="5" d="M0-2.5h58.859" transform="matrix(.81487 -.57964 .84605 .5331 54.541 64.023)"/>
  <path stroke="#fff" stroke-width="5" d="m505.601 28 47.529 33.906"/>
  <path stroke="#fff" stroke-width="5" d="M0-2.5h58.859" transform="matrix(.81487 -.57964 .84605 .5331 507.537 63.023)"/>
  <defs>
    <linearGradient id="a" x1="589.067" x2="598.454" y1="47.407" y2="47.407" gradientUnits="userSpaceOnUse">
      <stop stop-color="#1B3840"/>
      <stop offset="1" stop-color="#204954"/>
    </linearGradient>
    <linearGradient id="b" x1="7.276" x2="16.662" y1="47.298" y2="47.298" gradientUnits="userSpaceOnUse">
      <stop stop-color="#204954"/>
      <stop offset="1" stop-color="#1B3840"/>
    </linearGradient>
    <linearGradient id="c" x1="303.355" x2="303.355" y1="82.181" y2="12.632" gradientUnits="userSpaceOnUse">
      <stop stop-color="#0A1C4A"/>
      <stop offset=".165" stop-color="#091D50"/>
      <stop offset=".381" stop-color="#072060"/>
      <stop offset=".487" stop-color="#05226B"/>
      <stop offset=".583" stop-color="#052671"/>
      <stop offset=".714" stop-color="#043183"/>
      <stop offset=".865" stop-color="#02429F"/>
      <stop offset="1" stop-color="#0056BF"/>
    </linearGradient>
    <linearGradient id="e" x1="16.872" x2="16.872" y1="13.19" y2="9.383" gradientUnits="userSpaceOnUse">
      <stop stop-color="#6287C9"/>
      <stop offset="1" stop-color="#3B597D"/>
    </linearGradient>
    <linearGradient id="f" x1="18.958" x2="18.958" y1="14.767" y2="12.075" gradientUnits="userSpaceOnUse">
      <stop stop-color="#6287C9"/>
      <stop offset="1" stop-color="#3B597D"/>
    </linearGradient>
    <linearGradient id="g" x1="303.355" x2="303.355" y1="82.739" y2="80.047" gradientUnits="userSpaceOnUse">
      <stop stop-color="#87B5F5"/>
      <stop offset="1" stop-color="#4E76A6"/>
    </linearGradient>
    <linearGradient id="h" x1="586.437" x2="589.068" y1="47.407" y2="47.407" gradientUnits="userSpaceOnUse">
      <stop stop-color="#4E76A6"/>
      <stop offset="1" stop-color="#87B5F5"/>
    </linearGradient>
    <linearGradient id="i" x1="17.642" x2="20.273" y1="47.407" y2="47.407" gradientUnits="userSpaceOnUse">
      <stop stop-color="#335D94"/>
      <stop offset="1" stop-color="#204270"/>
    </linearGradient>
    <linearGradient id="j" x1="303.355" x2="303.355" y1="14.767" y2="12.075" gradientUnits="userSpaceOnUse">
      <stop stop-color="#204270"/>
      <stop offset="1" stop-color="#335D94"/>
    </linearGradient>
    <linearGradient id="k" x1="589.837" x2="589.837" y1="85.431" y2="81.623" gradientUnits="userSpaceOnUse">
      <stop stop-color="#6287C9"/>
      <stop offset="1" stop-color="#3B597D"/>
    </linearGradient>
    <linearGradient id="l" x1="587.752" x2="587.752" y1="82.739" y2="80.047" gradientUnits="userSpaceOnUse">
      <stop stop-color="#6287C9"/>
      <stop offset="1" stop-color="#3B597D"/>
    </linearGradient>
    <linearGradient id="m" x1="16.872" x2="16.872" y1="85.431" y2="81.623" gradientUnits="userSpaceOnUse">
      <stop stop-color="#6287C9"/>
      <stop offset="1" stop-color="#3B597D"/>
    </linearGradient>
    <linearGradient id="n" x1="18.958" x2="18.958" y1="82.739" y2="80.047" gradientUnits="userSpaceOnUse">
      <stop stop-color="#6287C9"/>
      <stop offset="1" stop-color="#3B597D"/>
    </linearGradient>
    <linearGradient id="o" x1="589.837" x2="589.837" y1="13.19" y2="9.383" gradientUnits="userSpaceOnUse">
      <stop stop-color="#6287C9"/>
      <stop offset="1" stop-color="#3B597D"/>
    </linearGradient>
    <linearGradient id="p" x1="587.752" x2="587.752" y1="14.767" y2="12.075" gradientUnits="userSpaceOnUse">
      <stop stop-color="#6287C9"/>
      <stop offset="1" stop-color="#3B597D"/>
    </linearGradient>
    <linearGradient id="q" x1="7.276" x2="17.643" y1="47.407" y2="47.407" gradientUnits="userSpaceOnUse">
      <stop stop-color="#4E76A6"/>
      <stop offset="1" stop-color="#87B5F5"/>
    </linearGradient>
    <linearGradient id="r" x1="12.459" x2="12.459" y1="66.702" y2="28.111" gradientUnits="userSpaceOnUse">
      <stop stop-color="#6287C9"/>
      <stop offset="1" stop-color="#3B597D"/>
    </linearGradient>
    <linearGradient id="t" x1="589.067" x2="598.454" y1="47.407" y2="47.407" gradientUnits="userSpaceOnUse">
      <stop stop-color="#335D94"/>
      <stop offset="1" stop-color="#204270"/>
    </linearGradient>
    <linearGradient id="u" x1="303.355" x2="303.355" y1="85.431" y2="82.739" gradientUnits="userSpaceOnUse">
      <stop stop-color="#204270"/>
      <stop offset="1" stop-color="#335D94"/>
    </linearGradient>
    <linearGradient id="v" x1="303.355" x2="303.355" y1="12.075" y2="9.383" gradientUnits="userSpaceOnUse">
      <stop stop-color="#4E76A6"/>
      <stop offset="1" stop-color="#87B5F5"/>
    </linearGradient>
    <linearGradient id="w" x1="12.459" x2="12.459" y1="31.929" y2="28.111" gradientUnits="userSpaceOnUse">
      <stop stop-color="#87B5F5"/>
      <stop offset="1" stop-color="#2C507A"/>
    </linearGradient>
    <linearGradient id="x" x1="12.459" x2="12.459" y1="66.702" y2="62.885" gradientUnits="userSpaceOnUse">
      <stop stop-color="#99B2BF"/>
      <stop offset="1" stop-color="#fff"/>
    </linearGradient>
    <linearGradient id="y" x1="10.563" x2="10.563" y1="63.658" y2="31.154" gradientUnits="userSpaceOnUse">
      <stop stop-color="#739CB0"/>
      <stop offset="1" stop-color="#476B96"/>
    </linearGradient>
    <linearGradient id="z" x1="14.355" x2="14.355" y1="66.702" y2="28.111" gradientUnits="userSpaceOnUse">
      <stop stop-color="#739CB0"/>
      <stop offset="1" stop-color="#476B96"/>
    </linearGradient>
    <linearGradient id="A" x1="593.27" x2="593.27" y1="66.81" y2="28.22" gradientUnits="userSpaceOnUse">
      <stop stop-color="#6287C9"/>
      <stop offset="1" stop-color="#3B597D"/>
    </linearGradient>
    <linearGradient id="C" x1="593.27" x2="593.27" y1="32.038" y2="28.22" gradientUnits="userSpaceOnUse">
      <stop stop-color="#87B5F5"/>
      <stop offset="1" stop-color="#2C507A"/>
    </linearGradient>
    <linearGradient id="D" x1="593.27" x2="593.27" y1="66.811" y2="62.993" gradientUnits="userSpaceOnUse">
      <stop stop-color="#99B2BF"/>
      <stop offset="1" stop-color="#fff"/>
    </linearGradient>
    <linearGradient id="E" x1="595.166" x2="595.166" y1="63.767" y2="31.264" gradientUnits="userSpaceOnUse">
      <stop stop-color="#739CB0"/>
      <stop offset="1" stop-color="#476B96"/>
    </linearGradient>
    <linearGradient id="F" x1="591.375" x2="591.375" y1="66.81" y2="28.22" gradientUnits="userSpaceOnUse">
      <stop stop-color="#739CB0"/>
      <stop offset="1" stop-color="#476B96"/>
    </linearGradient>
    <radialGradient id="d" cx="0" cy="0" r="1" gradientTransform="matrix(337.663 0 0 345.602 303.355 47.407)" gradientUnits="userSpaceOnUse">
      <stop offset=".591"/>
      <stop offset=".679" stop-color="#000103"/>
      <stop offset=".735" stop-color="#01050B"/>
      <stop offset=".783" stop-color="#020B1A"/>
      <stop offset=".826" stop-color="#03142F"/>
      <stop offset=".865" stop-color="#041F4A"/>
      <stop offset=".902" stop-color="#062D6C"/>
      <stop offset=".937" stop-color="#093E93"/>
      <stop offset=".97" stop-color="#0B51C0"/>
      <stop offset="1" stop-color="#0E65F0"/>
    </radialGradient>
    <radialGradient id="s" cx="0" cy="0" r="1" gradientTransform="matrix(11.7454 0 0 12.0216 12.459 47.407)" gradientUnits="userSpaceOnUse">
      <stop stop-color="#fff"/>
      <stop offset="1" stop-color="#87B5F5"/>
    </radialGradient>
    <radialGradient id="B" cx="0" cy="0" r="1" gradientTransform="matrix(11.7454 0 0 12.0216 593.271 47.515)" gradientUnits="userSpaceOnUse">
      <stop stop-color="#fff"/>
      <stop offset="1" stop-color="#87B5F5"/>
    </radialGradient>
    <radialGradient id="G" cx="0" cy="0" r="1" gradientTransform="matrix(280.583 0 0 287.18 303.355 47.407)" gradientUnits="userSpaceOnUse">
      <stop stop-color="#67DBFF"/>
      <stop offset="1" stop-color="#0068DE"/>
    </radialGradient>
    <radialGradient id="I" cx="0" cy="0" r="1" gradientTransform="matrix(0 -20.1571 8.10511 0 594.084 46.946)" gradientUnits="userSpaceOnUse">
      <stop stop-color="#87B5F5"/>
      <stop offset=".201" stop-color="#3C81D1"/>
      <stop offset=".398" stop-color="#1A669D"/>
      <stop offset=".582" stop-color="#114C65"/>
      <stop offset=".749" stop-color="#0E2D49"/>
      <stop offset=".894" stop-color="#0C1D37"/>
      <stop offset="1"/>
    </radialGradient>
    <radialGradient id="K" cx="0" cy="0" r="1" gradientTransform="matrix(0 -20.1571 8.1051 0 12.093 46.946)" gradientUnits="userSpaceOnUse">
      <stop stop-color="#87B5F5"/>
      <stop offset=".201" stop-color="#3C81D1"/>
      <stop offset=".398" stop-color="#1A669D"/>
      <stop offset=".582" stop-color="#114C65"/>
      <stop offset=".749" stop-color="#0E2D49"/>
      <stop offset=".894" stop-color="#0C1D37"/>
      <stop offset="1"/>
    </radialGradient>
    <radialGradient id="M" cx="0" cy="0" r="1" gradientTransform="matrix(-14.58808 -.21745 .04981 -3.34159 135.414 8.26)" gradientUnits="userSpaceOnUse">
      <stop stop-color="#87B5F5"/>
      <stop offset=".201" stop-color="#3C81D1"/>
      <stop offset=".398" stop-color="#1A669D"/>
      <stop offset=".582" stop-color="#114C65"/>
      <stop offset=".749" stop-color="#0E2D49"/>
      <stop offset=".894" stop-color="#0C1D37"/>
      <stop offset="1"/>
    </radialGradient>
    <radialGradient id="O" cx="0" cy="0" r="1" gradientTransform="matrix(-14.58808 -.21745 .04981 -3.34159 134.58 84.522)" gradientUnits="userSpaceOnUse">
      <stop stop-color="#87B5F5"/>
      <stop offset=".201" stop-color="#3C81D1"/>
      <stop offset=".398" stop-color="#1A669D"/>
      <stop offset=".582" stop-color="#114C65"/>
      <stop offset=".749" stop-color="#0E2D49"/>
      <stop offset=".894" stop-color="#0C1D37"/>
      <stop offset="1"/>
    </radialGradient>
    <radialGradient id="Q" cx="0" cy="0" r="1" gradientTransform="matrix(-14.58808 -.21745 .04981 -3.34159 470.601 84.522)" gradientUnits="userSpaceOnUse">
      <stop stop-color="#87B5F5"/>
      <stop offset=".201" stop-color="#3C81D1"/>
      <stop offset=".398" stop-color="#1A669D"/>
      <stop offset=".582" stop-color="#114C65"/>
      <stop offset=".749" stop-color="#0E2D49"/>
      <stop offset=".894" stop-color="#0C1D37"/>
      <stop offset="1"/>
    </radialGradient>
    <radialGradient id="S" cx="0" cy="0" r="1" gradientTransform="matrix(-14.58808 -.21745 .04981 -3.34159 471.435 9.598)" gradientUnits="userSpaceOnUse">
      <stop stop-color="#87B5F5"/>
      <stop offset=".201" stop-color="#3C81D1"/>
      <stop offset=".398" stop-color="#1A669D"/>
      <stop offset=".582" stop-color="#114C65"/>
      <stop offset=".749" stop-color="#0E2D49"/>
      <stop offset=".894" stop-color="#0C1D37"/>
      <stop offset="1"/>
    </radialGradient>
    <filter id="H" width="24.225" height="48.317" x="581.992" y="22.765" color-interpolation-filters="sRGB" filterUnits="userSpaceOnUse">
      <feFlood flood-opacity="0" result="BackgroundImageFix"/>
      <feBlend in="SourceGraphic" in2="BackgroundImageFix" result="shape"/>
      <feGaussianBlur result="effect1_foregroundBlur_249_1202" stdDeviation="2"/>
    </filter>
    <filter id="J" width="24.225" height="48.317" x="0" y="22.765" color-interpolation-filters="sRGB" filterUnits="userSpaceOnUse">
      <feFlood flood-opacity="0" result="BackgroundImageFix"/>
      <feBlend in="SourceGraphic" in2="BackgroundImageFix" result="shape"/>
      <feGaussianBlur result="effect1_foregroundBlur_249_1202" stdDeviation="2"/>
    </filter>
    <filter id="L" width="37.178" height="14.703" x="116.809" y=".9" color-interpolation-filters="sRGB" filterUnits="userSpaceOnUse">
      <feFlood flood-opacity="0" result="BackgroundImageFix"/>
      <feBlend in="SourceGraphic" in2="BackgroundImageFix" result="shape"/>
      <feGaussianBlur result="effect1_foregroundBlur_249_1202" stdDeviation="2"/>
    </filter>
    <filter id="N" width="37.178" height="14.703" x="115.975" y="77.162" color-interpolation-filters="sRGB" filterUnits="userSpaceOnUse">
      <feFlood flood-opacity="0" result="BackgroundImageFix"/>
      <feBlend in="SourceGraphic" in2="BackgroundImageFix" result="shape"/>
      <feGaussianBlur result="effect1_foregroundBlur_249_1202" stdDeviation="2"/>
    </filter>
    <filter id="P" width="37.179" height="14.703" x="451.996" y="77.162" color-interpolation-filters="sRGB" filterUnits="userSpaceOnUse">
      <feFlood flood-opacity="0" result="BackgroundImageFix"/>
      <feBlend in="SourceGraphic" in2="BackgroundImageFix" result="shape"/>
      <feGaussianBlur result="effect1_foregroundBlur_249_1202" stdDeviation="2"/>
    </filter>
    <filter id="R" width="37.179" height="14.703" x="452.83" y="2.238" color-interpolation-filters="sRGB" filterUnits="userSpaceOnUse">
      <feFlood flood-opacity="0" result="BackgroundImageFix"/>
      <feBlend in="SourceGraphic" in2="BackgroundImageFix" result="shape"/>
      <feGaussianBlur result="effect1_foregroundBlur_249_1202" stdDeviation="2"/>
    </filter>
  </defs>
</svg>
