<svg width="305" height="119" viewBox="0 0 305 119" fill="none" xmlns="http://www.w3.org/2000/svg">
<g opacity="0.01">
<path d="M244.606 119H60.3943C27.083 119 0 92.2969 0 59.5C0 26.6819 27.083 0 60.3943 0H244.606C277.896 0 305 26.6819 305 59.5C305 92.2969 277.917 119 244.606 119ZM60.3943 53.9563C57.3016 53.9563 54.7673 56.4531 54.7673 59.5C54.7673 62.5469 57.3016 65.0437 60.3943 65.0437H244.606C247.698 65.0437 250.233 62.5681 250.233 59.5C250.233 56.4531 247.72 53.9563 244.606 53.9563H60.3943Z" fill="#0072FF"/>
</g>
<g opacity="0.01">
<path d="M244.606 117.413H60.3944C27.985 117.413 1.61084 91.4294 1.61084 59.5C1.61084 27.5706 27.985 1.58691 60.3944 1.58691H244.606C277.015 1.58691 303.389 27.5706 303.389 59.5C303.389 91.4294 277.015 117.413 244.606 117.413ZM60.3944 52.3693C56.3996 52.3693 53.1565 55.5643 53.1565 59.5C53.1565 63.4356 56.3996 66.6307 60.3944 66.6307H244.606C248.601 66.6307 251.844 63.4356 251.844 59.5C251.844 55.5643 248.601 52.3693 244.606 52.3693H60.3944Z" fill="#0072FF"/>
</g>
<g opacity="0.01">
<path d="M244.606 115.826H60.3944C28.8657 115.826 3.22168 90.5618 3.22168 59.4999C3.22168 28.4381 28.8657 3.17383 60.3944 3.17383H244.606C276.135 3.17383 301.778 28.4381 301.778 59.4999C301.778 90.5618 276.135 115.826 244.606 115.826ZM60.3944 50.7823C55.5191 50.7823 51.5457 54.6968 51.5457 59.4999C51.5457 64.3031 55.5191 68.2176 60.3944 68.2176H244.606C249.481 68.2176 253.454 64.3031 253.454 59.4999C253.454 54.6968 249.481 50.7823 244.606 50.7823H60.3944Z" fill="#0072FF"/>
</g>
<g opacity="0.01">
<path d="M244.606 114.239H60.3945C29.7677 114.239 4.83252 89.6942 4.83252 59.4999C4.83252 29.3267 29.7463 4.76074 60.3945 4.76074H244.606C275.232 4.76074 300.168 29.3055 300.168 59.4999C300.168 89.6731 275.254 114.239 244.606 114.239ZM60.3945 49.1953C54.617 49.1953 49.935 53.808 49.935 59.4999C49.935 65.1917 54.617 69.8045 60.3945 69.8045H244.606C250.383 69.8045 255.065 65.1917 255.065 59.4999C255.065 53.808 250.383 49.1953 244.606 49.1953H60.3945Z" fill="#0072FF"/>
</g>
<g opacity="0.01">
<path d="M244.606 112.652H60.3945C30.6483 112.652 6.44336 88.8055 6.44336 59.4999C6.44336 30.1942 30.6483 6.34766 60.3945 6.34766H244.606C274.352 6.34766 298.557 30.1942 298.557 59.4999C298.557 88.8055 274.352 112.652 244.606 112.652ZM60.3945 47.6083C53.7365 47.6083 48.3242 52.9405 48.3242 59.4999C48.3242 66.0593 53.7365 71.3914 60.3945 71.3914H244.606C251.264 71.3914 256.676 66.0593 256.676 59.4999C256.676 52.9405 251.264 47.6083 244.606 47.6083H60.3945Z" fill="#0072FF"/>
</g>
<g opacity="0.0113">
<path d="M244.606 111.065H60.3945C31.529 111.065 8.0542 87.938 8.0542 59.4998C8.0542 31.0617 31.529 7.93457 60.3945 7.93457H244.606C273.471 7.93457 296.946 31.0617 296.946 59.4998C296.946 87.938 273.471 111.065 244.606 111.065ZM60.3945 46.0213C52.856 46.0213 46.7135 52.0729 46.7135 59.4998C46.7135 66.9267 52.856 72.9783 60.3945 72.9783H244.606C252.144 72.9783 258.287 66.9267 258.287 59.4998C258.287 52.0729 252.144 46.0213 244.606 46.0213H60.3945Z" fill="#0072FF"/>
</g>
<g opacity="0.0153">
<path d="M244.606 109.478H60.3946C32.431 109.478 9.66504 87.0492 9.66504 59.4998C9.66504 31.9504 32.431 9.52148 60.3946 9.52148H244.606C272.569 9.52148 295.335 31.9504 295.335 59.4998C295.335 87.0492 272.569 109.478 244.606 109.478ZM60.3946 44.4344C51.954 44.4344 45.1027 51.1842 45.1027 59.4998C45.1027 67.8154 51.954 74.5652 60.3946 74.5652H244.606C253.047 74.5652 259.898 67.8154 259.898 59.4998C259.898 51.1842 253.047 44.4344 244.606 44.4344H60.3946Z" fill="#0072FF"/>
</g>
<g opacity="0.0201">
<path d="M244.605 107.891H60.3941C33.3112 107.891 11.2754 86.1816 11.2754 59.4998C11.2754 32.8179 33.3112 11.1084 60.3941 11.1084H244.605C271.688 11.1084 293.724 32.8179 293.724 59.4998C293.724 86.1816 271.688 107.891 244.605 107.891ZM60.3941 42.8474C51.0729 42.8474 43.4914 50.3166 43.4914 59.4998C43.4914 68.6829 51.0729 76.1521 60.3941 76.1521H244.605C253.927 76.1521 261.508 68.6829 261.508 59.4998C261.508 50.3166 253.927 42.8474 244.605 42.8474H60.3941Z" fill="#0072FF"/>
</g>
<g opacity="0.0259">
<path d="M244.605 106.305H60.3942C34.1918 106.305 12.8862 85.3146 12.8862 59.5002C12.8862 33.6858 34.1918 12.6958 60.3942 12.6958H244.605C270.808 12.6958 292.113 33.6858 292.113 59.5002C292.113 85.3146 270.808 106.305 244.605 106.305ZM60.3942 41.2609C50.1924 41.2609 41.8807 49.4495 41.8807 59.5002C41.8807 69.5509 50.1924 77.7395 60.3942 77.7395H244.605C254.807 77.7395 263.119 69.5509 263.119 59.5002C263.119 49.4495 254.807 41.2609 244.605 41.2609H60.3942Z" fill="#0072FF"/>
</g>
<g opacity="0.0327">
<path d="M244.606 104.718H60.3942C35.0939 104.718 14.4971 84.4259 14.4971 59.5002C14.4971 34.5745 35.0939 14.2827 60.3942 14.2827H244.606C269.906 14.2827 290.503 34.5745 290.503 59.5002C290.503 84.4259 269.906 104.718 244.606 104.718ZM60.3942 39.6739C49.2904 39.6739 40.2699 48.5608 40.2699 59.5002C40.2699 70.4395 49.2904 79.3265 60.3942 79.3265H244.606C255.709 79.3265 264.73 70.4395 264.73 59.5002C264.73 48.5608 255.709 39.6739 244.606 39.6739H60.3942Z" fill="#0072FF"/>
</g>
<g opacity="0.0409">
<path d="M244.606 103.131H60.3942C35.9745 103.131 16.1079 83.5583 16.1079 59.5001C16.1079 35.442 35.9745 15.8696 60.3942 15.8696H244.606C269.025 15.8696 288.892 35.442 288.892 59.5001C288.892 83.5583 269.025 103.131 244.606 103.131ZM60.3942 38.0869C48.4099 38.0869 38.6591 47.6932 38.6591 59.5001C38.6591 71.307 48.4099 80.9134 60.3942 80.9134H244.606C256.59 80.9134 266.341 71.307 266.341 59.5001C266.341 47.6932 256.59 38.0869 244.606 38.0869H60.3942V38.0869Z" fill="#0072FF"/>
</g>
<g opacity="0.0511">
<path d="M244.606 101.544H60.3943C36.8551 101.544 17.7188 82.6907 17.7188 59.5001C17.7188 36.3095 36.8551 17.4565 60.3943 17.4565H244.606C268.145 17.4565 287.281 36.3095 287.281 59.5001C287.281 82.6907 268.145 101.544 244.606 101.544ZM60.3943 36.4999C47.5293 36.4999 37.0484 46.8257 37.0484 59.5001C37.0484 72.1745 47.5293 82.5003 60.3943 82.5003H244.606C257.471 82.5003 267.951 72.1745 267.951 59.5001C267.951 46.8257 257.471 36.4999 244.606 36.4999H60.3943Z" fill="#0072FF"/>
</g>
<g opacity="0.0642">
<path d="M244.606 99.9567H60.3943C37.7572 99.9567 19.3296 81.802 19.3296 59.5001C19.3296 37.1982 37.7572 19.0435 60.3943 19.0435H244.606C267.243 19.0435 285.67 37.1982 285.67 59.5001C285.67 81.802 267.243 99.9567 244.606 99.9567ZM60.3943 34.9129C46.6273 34.9129 35.4376 45.937 35.4376 59.5001C35.4376 73.0632 46.6273 84.0872 60.3943 84.0872H244.606C258.373 84.0872 269.562 73.0632 269.562 59.5001C269.562 45.937 258.373 34.9129 244.606 34.9129H60.3943Z" fill="#0072FF"/>
</g>
<g opacity="0.0832">
<path d="M244.606 98.3697H60.3943C38.6378 98.3697 20.9404 80.9344 20.9404 59.5C20.9404 38.0657 38.6378 20.6304 60.3943 20.6304H244.606C266.362 20.6304 284.06 38.0657 284.06 59.5C284.06 80.9344 266.362 98.3697 244.606 98.3697ZM60.3943 33.326C45.7468 33.326 33.8268 45.0694 33.8268 59.5C33.8268 73.9307 45.7468 85.6741 60.3943 85.6741H244.606C259.253 85.6741 271.173 73.9307 271.173 59.5C271.173 45.0694 259.253 33.326 244.606 33.326H60.3943V33.326Z" fill="#0072FF"/>
</g>
<g opacity="0.1468">
<path d="M244.606 96.7827H60.3944C39.5184 96.7827 22.5513 80.0669 22.5513 59.5C22.5513 38.9331 39.5184 22.2173 60.3944 22.2173H244.606C265.482 22.2173 282.449 38.9331 282.449 59.5C282.449 80.0457 265.482 96.7827 244.606 96.7827ZM60.3944 31.739C44.8663 31.739 32.2161 44.2018 32.2161 59.5C32.2161 74.7982 44.8663 87.261 60.3944 87.261H244.606C260.134 87.261 272.784 74.7982 272.784 59.5C272.784 44.2018 260.134 31.739 244.606 31.739H60.3944V31.739Z" fill="#0072FF"/>
</g>
<path d="M244.606 95.1957H60.3944C40.4205 95.1957 24.1621 79.1781 24.1621 59.5C24.1621 39.8218 40.4205 23.8042 60.3944 23.8042H244.606C264.58 23.8042 280.838 39.8218 280.838 59.5C280.838 79.1781 264.58 95.1957 244.606 95.1957ZM60.3944 30.152C43.9642 30.152 30.6053 43.3131 30.6053 59.5C30.6053 75.6868 43.9642 88.8479 60.3944 88.8479H244.606C261.036 88.8479 274.395 75.6868 274.395 59.5C274.395 43.3131 261.036 30.152 244.606 30.152H60.3944V30.152Z" fill="#004ABA"/>
<path d="M244.605 93.0796H60.3941C41.6015 93.0796 26.3096 78.0142 26.3096 59.4998C26.3096 40.9854 41.6015 25.9199 60.3941 25.9199H244.605C263.398 25.9199 278.69 40.9854 278.69 59.4998C278.69 78.0142 263.398 93.0796 244.605 93.0796ZM60.3941 28.0359C42.7827 28.0359 28.4573 42.1491 28.4573 59.4998C28.4573 76.8504 42.7827 90.9637 60.3941 90.9637H244.605C262.217 90.9637 276.542 76.8504 276.542 59.4998C276.542 42.1491 262.217 28.0359 244.605 28.0359H60.3941V28.0359Z" fill="white"/>
<path d="M67.9427 40.3563H74.2067C75.0067 40.3563 75.7347 40.4523 76.3907 40.6443C77.0627 40.8203 77.6307 41.0923 78.0947 41.4603C78.5747 41.8123 78.9427 42.2603 79.1987 42.8043C79.4707 43.3323 79.6067 43.9563 79.6067 44.6763C79.6067 45.1883 79.5427 45.6283 79.4147 45.9963C79.2867 46.3483 79.1507 46.6443 79.0067 46.8843C78.8307 47.1723 78.6307 47.4123 78.4067 47.6043C78.7587 47.8283 79.0787 48.1163 79.3667 48.4683C79.6067 48.7723 79.8227 49.1563 80.0147 49.6203C80.2227 50.0843 80.3267 50.6523 80.3267 51.3243C80.3267 52.0923 80.1907 52.7883 79.9187 53.4123C79.6467 54.0363 79.2547 54.5723 78.7427 55.0203C78.2467 55.4523 77.6307 55.7883 76.8947 56.0283C76.1747 56.2523 75.3667 56.3643 74.4707 56.3643H67.9427V40.3563ZM73.4627 52.5963C74.6787 52.5963 75.2867 52.1323 75.2867 51.2043C75.2867 50.2763 74.6787 49.8123 73.4627 49.8123H72.8867V52.5963H73.4627ZM74.6627 45.2283C74.6627 44.4923 74.2627 44.1243 73.4627 44.1243H72.8867V46.3323H73.4627C74.2627 46.3323 74.6627 45.9643 74.6627 45.2283ZM73.7987 54.4443C75.2067 54.4443 76.2467 54.1403 76.9187 53.5323C77.5907 52.9243 77.9267 52.1163 77.9267 51.1083C77.9267 50.4523 77.7827 49.9323 77.4947 49.5483C77.2227 49.1483 76.9267 48.8363 76.6067 48.6123C76.2067 48.3563 75.7667 48.1803 75.2867 48.0843C75.6707 47.9723 76.0147 47.7963 76.3187 47.5563C76.5907 47.3483 76.8307 47.0683 77.0387 46.7163C77.2627 46.3483 77.3747 45.8843 77.3747 45.3243C77.3747 44.3163 77.0547 43.5563 76.4147 43.0443C75.7747 42.5323 74.9027 42.2763 73.7987 42.2763H70.3427V54.4443H73.7987ZM70.9667 53.8683V48.3723H73.7747C74.2707 48.3723 74.7267 48.4283 75.1427 48.5403C75.5747 48.6363 75.9507 48.7963 76.2707 49.0203C76.5907 49.2283 76.8387 49.5083 77.0147 49.8603C77.2067 50.2123 77.3027 50.6283 77.3027 51.1083C77.3027 52.0843 76.9747 52.7883 76.3187 53.2203C75.6787 53.6523 74.8307 53.8683 73.7747 53.8683H70.9667ZM70.9667 47.7963V42.8523H73.7987C74.8387 42.8523 75.5827 43.0843 76.0307 43.5483C76.4947 43.9963 76.7267 44.5883 76.7267 45.3243C76.7267 46.0603 76.4947 46.6603 76.0307 47.1243C75.5827 47.5723 74.8387 47.7963 73.7987 47.7963H70.9667ZM88.5958 40.3563H98.0278V44.5563H93.7078V46.3323H97.9558V50.3163H93.7078V52.1643H98.1958V56.3643H88.5958V40.3563ZM96.4198 54.4443V53.8683H91.6198V48.6123H96.1798V48.0363H91.6198V42.8523H96.4198V42.2763H90.9958V54.4443H96.4198ZM108.947 44.5563H105.995V40.3563H117.179V44.5563H114.227V56.3643H108.947V44.5563ZM111.899 54.4443V42.8523H115.331V42.2763H107.843V42.8523H111.275V54.4443H111.899ZM128.162 40.3563H132.002L138.074 56.3643H133.034L132.506 54.9243H127.658L127.13 56.3643H122.09L128.162 40.3563ZM131.162 51.3963L130.082 48.5883L129.002 51.3963H131.162ZM125.666 54.4443L126.122 53.2443H134.042L134.498 54.4443H135.17L130.538 42.2763H129.626L124.994 54.4443H125.666ZM130.082 42.8523L133.826 52.6683H126.338L130.082 42.8523ZM167.838 45.8043C167.55 45.5483 167.19 45.3563 166.758 45.2283C166.326 45.0843 165.902 45.0123 165.486 45.0123C165.022 45.0123 164.598 45.1003 164.214 45.2763C163.83 45.4363 163.494 45.6683 163.206 45.9723C162.934 46.2603 162.718 46.6123 162.558 47.0283C162.398 47.4443 162.318 47.8923 162.318 48.3723C162.318 48.8523 162.406 49.3003 162.582 49.7163C162.758 50.1323 162.998 50.4923 163.302 50.7963C163.606 51.0843 163.958 51.3163 164.358 51.4923C164.774 51.6523 165.214 51.7323 165.678 51.7323C166.222 51.7323 166.718 51.6203 167.166 51.3963C167.614 51.1563 167.998 50.8363 168.318 50.4363H166.878V47.0763H173.046V52.4043C172.678 53.0603 172.238 53.6603 171.726 54.2043C171.214 54.7323 170.638 55.1883 169.998 55.5723C169.374 55.9563 168.694 56.2523 167.958 56.4603C167.222 56.6683 166.462 56.7723 165.678 56.7723C164.526 56.7723 163.438 56.5563 162.414 56.1243C161.39 55.6923 160.494 55.1003 159.726 54.3483C158.974 53.5963 158.374 52.7083 157.926 51.6843C157.494 50.6603 157.278 49.5563 157.278 48.3723C157.278 47.2203 157.486 46.1323 157.902 45.1083C158.318 44.0843 158.886 43.1963 159.606 42.4443C160.342 41.6763 161.206 41.0763 162.198 40.6443C163.206 40.1963 164.286 39.9723 165.438 39.9723C166.334 39.9723 167.11 40.0603 167.766 40.2363C168.422 40.4123 168.974 40.6123 169.422 40.8363C169.95 41.0923 170.39 41.3723 170.742 41.6763L167.838 45.8043ZM168.078 42.7083C167.87 42.6123 167.638 42.5323 167.382 42.4683C167.158 42.4043 166.894 42.3483 166.59 42.3003C166.286 42.2523 165.95 42.2283 165.582 42.2283C164.734 42.2283 163.942 42.3803 163.206 42.6843C162.47 42.9883 161.83 43.4123 161.286 43.9563C160.742 44.4843 160.31 45.1243 159.99 45.8763C159.686 46.6283 159.534 47.4603 159.534 48.3723C159.534 49.2843 159.694 50.1163 160.014 50.8683C160.334 51.6203 160.774 52.2683 161.334 52.8123C161.894 53.3403 162.542 53.7563 163.278 54.0603C164.03 54.3643 164.83 54.5163 165.678 54.5163C166.782 54.5163 167.782 54.2603 168.678 53.7483C169.574 53.2203 170.302 52.5243 170.862 51.6603V48.5163H168.318V49.0923H170.238V51.4923C169.742 52.2283 169.094 52.8123 168.294 53.2443C167.51 53.6763 166.638 53.8923 165.678 53.8923C164.91 53.8923 164.19 53.7643 163.518 53.5083C162.862 53.2363 162.278 52.8603 161.766 52.3803C161.27 51.8843 160.878 51.3003 160.59 50.6283C160.302 49.9403 160.158 49.1883 160.158 48.3723C160.158 47.5563 160.294 46.8123 160.566 46.1403C160.854 45.4523 161.238 44.8683 161.718 44.3883C162.214 43.8923 162.79 43.5163 163.446 43.2603C164.102 42.9883 164.814 42.8523 165.582 42.8523C165.87 42.8523 166.142 42.8763 166.398 42.9243C166.654 42.9723 166.878 43.0203 167.07 43.0683C167.294 43.1323 167.502 43.1963 167.694 43.2603L168.078 42.7083ZM185.715 40.3563H189.555L195.627 56.3643H190.587L190.059 54.9243H185.211L184.683 56.3643H179.643L185.715 40.3563ZM188.715 51.3963L187.635 48.5883L186.555 51.3963H188.715ZM183.219 54.4443L183.675 53.2443H191.595L192.051 54.4443H192.723L188.091 42.2763H187.179L182.547 54.4443H183.219ZM187.635 42.8523L191.379 52.6683H183.891L187.635 42.8523ZM203.186 40.3563H207.41L211.586 46.5003L215.738 40.3563H219.962V56.3643H214.85V50.6043L211.586 55.4043L208.298 50.6043V56.3643H203.186V40.3563ZM206.21 54.4443V43.4283L211.586 51.2523L216.938 43.4283V54.4443H217.562V42.2763H216.938L211.586 50.1723L206.21 42.2763H205.586V54.4443H206.21ZM228.832 40.3563H238.264V44.5563H233.944V46.3323H238.192V50.3163H233.944V52.1643H238.432V56.3643H228.832V40.3563ZM236.656 54.4443V53.8683H231.856V48.6123H236.416V48.0363H231.856V42.8523H236.656V42.2763H231.232V54.4443H236.656Z" fill="white"/>
<path fill-rule="evenodd" clip-rule="evenodd" d="M145.887 74.4443H147.326V74.2956V71.8269C147.326 70.4151 147.997 69.1314 149.077 68.2013V68.2C150.158 67.2698 151.649 66.6919 153.29 66.6919C154.929 66.6919 156.42 67.2698 157.501 68.2L157.502 68.2013C158.582 69.1314 159.254 70.4151 159.254 71.8269V74.2956V74.4443H160.4C160.656 74.4443 160.865 74.6244 160.865 74.8442V83.2919C160.865 83.5118 160.656 83.6919 160.4 83.6919H145.887C145.631 83.6919 145.422 83.5118 145.422 83.2919V74.8442C145.422 74.6244 145.631 74.4443 145.887 74.4443ZM149.643 74.4443H156.936V74.2956V71.7984C156.936 70.9351 156.526 70.1497 155.866 69.5807L155.865 69.5813C155.204 69.0121 154.292 68.6586 153.29 68.6586C152.287 68.6586 151.375 69.012 150.714 69.5807C150.053 70.1497 149.643 70.9351 149.643 71.7984V74.2957V74.4443ZM153.319 79.0667L154.055 81.9912L152.038 81.9985L152.63 79.0347C152.078 78.8826 151.679 78.4378 151.679 77.9126C151.679 77.2622 152.291 76.7351 153.047 76.7351C153.802 76.7351 154.414 77.2622 154.414 77.9126C154.414 78.4826 153.944 78.9581 153.319 79.0667Z" fill="white"/>
</svg>
