<svg xmlns="http://www.w3.org/2000/svg" width="475" height="164" fill="none" viewBox="0 0 475 164">
  <path fill="#0072FF" d="M380.943 164H94.057C42.178 164 0 127.199 0 82 0 36.772 42.178 0 94.057 0h286.886C432.788 0 475 36.772 475 82c0 45.199-42.178 82-94.057 82ZM94.057 74.36c-4.817 0-8.764 3.44-8.764 7.64 0 4.2 3.947 7.64 8.764 7.64h286.886c4.817 0 8.764-3.412 8.764-7.64 0-4.2-3.914-7.64-8.764-7.64H94.057Z" opacity=".01"/>
  <path fill="#0072FF" d="M380.943 161.813H94.057c-50.474 0-91.548-35.809-91.548-79.813 0-44.003 41.074-79.813 91.548-79.813h286.886c50.474 0 91.549 35.81 91.549 79.813 0 44.004-41.075 79.813-91.549 79.813ZM94.057 72.173c-6.222 0-11.272 4.404-11.272 9.827 0 5.424 5.05 9.828 11.272 9.828h286.886c6.222 0 11.273-4.404 11.273-9.828 0-5.423-5.051-9.827-11.273-9.827H94.057Z" opacity=".01"/>
  <path fill="#0072FF" d="M380.944 159.626H94.057c-49.102 0-89.04-34.818-89.04-77.626 0-42.808 39.938-77.626 89.04-77.626h286.887c49.102 0 89.039 34.818 89.039 77.626 0 42.808-39.937 77.626-89.039 77.626ZM94.057 69.986c-7.593 0-13.78 5.394-13.78 12.014 0 6.62 6.187 12.014 13.78 12.014h286.887c7.592 0 13.78-5.395 13.78-12.014 0-6.62-6.188-12.014-13.78-12.014H94.057Z" opacity=".01"/>
  <path fill="#0072FF" d="M380.943 157.439H94.056c-47.697 0-86.53-33.826-86.53-75.439 0-41.583 38.8-75.438 86.53-75.438h286.887c47.697 0 86.531 33.826 86.531 75.438 0 41.584-38.8 75.439-86.531 75.439ZM94.056 67.799c-8.997 0-16.29 6.357-16.29 14.201 0 7.845 7.293 14.202 16.29 14.202h286.887c8.997 0 16.289-6.357 16.289-14.202 0-7.844-7.292-14.2-16.289-14.2H94.056Z" opacity=".01"/>
  <path fill="#0072FF" d="M380.943 155.252H94.056c-46.325 0-84.022-32.865-84.022-73.252 0-40.388 37.697-73.252 84.022-73.252h286.887c46.326 0 84.022 32.864 84.022 73.252 0 40.387-37.696 73.252-84.022 73.252ZM94.056 65.612C83.688 65.612 75.26 72.96 75.26 82c0 9.04 8.428 16.388 18.797 16.388h286.887c10.369 0 18.798-7.348 18.798-16.388 0-9.04-8.429-16.388-18.798-16.388H94.056Z" opacity=".01"/>
  <path fill="#0072FF" d="M380.943 153.065H94.057c-44.955 0-81.514-31.873-81.514-71.065 0-39.192 36.559-71.064 81.514-71.064h286.886c44.955 0 81.514 31.872 81.514 71.064 0 39.192-36.559 71.065-81.514 71.065ZM94.057 63.425c-11.74 0-21.307 8.34-21.307 18.575 0 10.236 9.566 18.576 21.307 18.576h286.886c11.74 0 21.307-8.34 21.307-18.576 0-10.235-9.567-18.575-21.307-18.575H94.057Z" opacity=".011"/>
  <path fill="#0072FF" d="M380.943 150.877H94.057c-43.55 0-79.005-30.91-79.005-68.877 0-37.968 35.455-68.878 79.005-68.878h286.886c43.55 0 79.005 30.91 79.005 68.878 0 37.967-35.455 68.877-79.005 68.877ZM94.057 61.237C80.912 61.237 70.24 70.54 70.24 82s10.67 20.762 23.816 20.762h286.886c13.145 0 23.815-9.302 23.815-20.762s-10.67-20.763-23.815-20.763H94.057Z" opacity=".015"/>
  <path fill="#0072FF" d="M380.943 148.691H94.057c-42.178 0-76.496-29.919-76.496-66.69 0-36.773 34.318-66.691 76.496-66.691h286.886c42.179 0 76.497 29.918 76.497 66.69s-34.318 66.691-76.497 66.691ZM94.057 59.051C79.54 59.05 67.733 69.344 67.733 82c0 12.655 11.807 22.949 26.324 22.949h286.886c14.517 0 26.324-10.294 26.324-22.95 0-12.656-11.807-22.95-26.324-22.95H94.057Z" opacity=".02"/>
  <path fill="#0072FF" d="M380.944 146.503H94.057C53.25 146.503 20.07 117.576 20.07 82c0-35.577 33.181-64.504 73.988-64.504h286.887c40.807 0 73.987 28.927 73.987 64.504 0 35.576-33.18 64.503-73.987 64.503ZM94.057 56.863C78.17 56.863 65.225 68.148 65.225 82c0 13.851 12.944 25.136 28.832 25.136h286.887c15.887 0 28.832-11.285 28.832-25.136 0-13.852-12.945-25.137-28.832-25.137H94.057Z" opacity=".026"/>
  <path fill="#0072FF" d="M380.944 144.317H94.057c-39.402 0-71.479-27.966-71.479-62.317s32.077-62.316 71.48-62.316h286.886c39.402 0 71.479 27.965 71.479 62.316s-32.077 62.317-71.479 62.317ZM94.057 54.677c-17.293 0-31.34 12.247-31.34 27.323s14.047 27.324 31.34 27.324h286.887c17.293 0 31.341-12.248 31.341-27.324 0-15.076-14.048-27.324-31.341-27.324H94.057Z" opacity=".033"/>
  <path fill="#0072FF" d="M380.943 142.129H94.056c-38.03 0-68.97-26.974-68.97-60.13 0-33.155 30.94-60.129 68.97-60.129h286.887c38.031 0 68.97 26.974 68.97 60.13 0 33.155-30.939 60.129-68.97 60.129ZM94.056 52.489c-18.664 0-33.85 13.239-33.85 29.51 0 16.272 15.186 29.511 33.85 29.511h286.887c18.664 0 33.85-13.239 33.85-29.51 0-16.272-15.186-29.511-33.85-29.511H94.056Z" opacity=".041"/>
  <path fill="#0072FF" d="M380.943 139.942H94.057c-36.66 0-66.462-25.982-66.462-57.942s29.802-57.942 66.462-57.942h286.886c36.659 0 66.462 25.982 66.462 57.942s-29.803 57.942-66.462 57.942ZM94.057 50.302c-20.036 0-36.359 14.23-36.359 31.698 0 17.467 16.323 31.698 36.359 31.698h286.886c20.036 0 36.358-14.23 36.358-31.698 0-17.467-16.322-31.698-36.358-31.698H94.057Z" opacity=".051"/>
  <path fill="#0072FF" d="M380.943 137.756H94.057c-35.255 0-63.954-25.02-63.954-55.755 0-30.736 28.7-55.756 63.954-55.756h286.886c35.255 0 63.953 25.02 63.953 55.755 0 30.736-28.698 55.756-63.953 55.756ZM94.057 48.116C72.617 48.116 55.19 63.308 55.19 82c0 18.691 17.426 33.884 38.867 33.884h286.886c21.441 0 38.867-15.193 38.867-33.885s-17.426-33.884-38.867-33.884H94.057Z" opacity=".064"/>
  <path fill="#0072FF" d="M380.943 135.568H94.057c-33.883 0-61.445-24.028-61.445-53.568s27.562-53.568 61.445-53.568h286.886c33.884 0 61.445 24.028 61.445 53.568s-27.561 53.568-61.445 53.568ZM94.057 45.928C71.245 45.928 52.68 62.112 52.68 82s18.564 36.072 41.376 36.072h286.886c22.812 0 41.376-16.184 41.376-36.072s-18.564-36.072-41.376-36.072H94.057Z" opacity=".083"/>
  <path fill="#0072FF" d="M380.944 133.382H94.057c-32.512 0-58.936-23.037-58.936-51.382 0-28.344 26.424-51.38 58.936-51.38h286.887c32.511 0 58.936 23.036 58.936 51.38 0 28.315-26.425 51.382-58.936 51.382ZM94.057 43.742c-24.183 0-43.884 17.175-43.884 38.258 0 21.084 19.7 38.259 43.884 38.259h286.887c24.183 0 43.884-17.175 43.884-38.259 0-21.083-19.701-38.258-43.884-38.258H94.057Z" opacity=".147"/>
  <path fill="#004ABA" d="M380.943 131.194H94.056C62.95 131.194 37.63 109.119 37.63 82c0-27.12 25.32-49.194 56.427-49.194h286.887c31.107 0 56.427 22.074 56.427 49.194 0 27.119-25.32 49.194-56.427 49.194ZM94.056 41.554c-25.588 0-46.393 18.138-46.393 40.446 0 22.308 20.805 40.446 46.393 40.446h286.887c25.588 0 46.393-18.138 46.393-40.446 0-22.308-20.805-40.446-46.393-40.446H94.056Z"/>
  <path fill="#fff" d="M380.944 128.278H94.057c-29.267 0-53.082-20.763-53.082-46.278 0-25.516 23.815-46.278 53.082-46.278h286.887c29.267 0 53.082 20.762 53.082 46.278 0 25.515-23.815 46.278-53.082 46.278ZM94.057 38.638C66.63 38.638 44.32 58.088 44.32 82c0 23.912 22.31 43.362 49.738 43.362h286.887c27.427 0 49.737-19.45 49.737-43.362 0-23.912-22.31-43.362-49.737-43.362H94.057Z"/>
  <path fill="#fff" d="M103.088 68.32h8.879V88h7.361v7h-16.24V68.32Zm14 23.48v-.96h-8.96V71.52h-1.04V91.8h10Zm15.656-23.48h9.04V95h-9.04V68.32Zm5.04 23.48V71.52h-1.04V91.8h1.04ZM160.1 75.32h-4.92v-7h18.64v7h-4.92V95h-8.8V75.32Zm4.92 16.48V72.48h5.72v-.96h-12.48v.96h5.72V91.8h1.04Zm22.193-23.48h15.72v7h-7.2v2.96h7.08v6.64h-7.08V88h7.48v7h-16V68.32Zm13.04 23.48v-.96h-8v-8.76h7.6v-.96h-7.6v-8.64h8v-.96h-9.04V91.8h9.04Zm38.118-13.32c0 1.84-.32 3.413-.96 4.72-.64 1.28-1.52 2.32-2.64 3.12-1.093.8-2.387 1.387-3.88 1.76-1.467.373-3.053.56-4.76.56V95h-8.52V68.32h8.52c1.707 0 3.293.187 4.76.56 1.493.373 2.787.96 3.88 1.76 1.12.8 2 1.853 2.64 3.16.64 1.28.96 2.84.96 4.68Zm-3.88 0c0-1.2-.213-2.24-.64-3.12-.4-.88-.973-1.6-1.72-2.16s-1.64-.973-2.68-1.24c-1.013-.293-2.12-.44-3.32-.44h-4.52V91.8h1.04v-6.36h3.48c1.2 0 2.307-.133 3.32-.4 1.04-.293 1.933-.72 2.68-1.28a5.486 5.486 0 0 0 1.72-2.16c.427-.88.64-1.92.64-3.12Zm-1.12 0c0 1.147-.2 2.107-.6 2.88-.4.773-.933 1.387-1.6 1.84-.667.453-1.44.787-2.32 1-.853.187-1.76.28-2.72.28h-3.48v-12h3.48c.96 0 1.867.107 2.72.32.88.187 1.653.507 2.32.96.667.453 1.2 1.067 1.6 1.84.4.773.6 1.733.6 2.88Zm-7.24 2.96h.36c1.12 0 1.92-.253 2.4-.76.507-.533.76-1.267.76-2.2 0-.933-.253-1.653-.76-2.16-.48-.533-1.28-.8-2.4-.8h-.36v5.92Zm30.97-13.12h6.4L273.621 95h-8.4l-.88-2.4h-8.08l-.88 2.4h-8.4l10.12-26.68Zm5 18.4-1.8-4.68-1.8 4.68h3.6Zm-9.16 5.08.76-2h13.2l.76 2h1.12l-7.72-20.28h-1.52l-7.72 20.28h1.12Zm7.36-19.32 6.24 16.36h-12.48l6.24-16.36Zm46.679 6c0 1.84-.32 3.413-.96 4.72-.64 1.28-1.52 2.32-2.64 3.12-1.093.8-2.386 1.387-3.88 1.76-1.466.373-3.053.56-4.76.56V95h-8.52V68.32h8.52c1.707 0 3.294.187 4.76.56 1.494.373 2.787.96 3.88 1.76 1.12.8 2 1.853 2.64 3.16.64 1.28.96 2.84.96 4.68Zm-3.88 0c0-1.2-.213-2.24-.64-3.12-.4-.88-.973-1.6-1.72-2.16-.746-.56-1.64-.973-2.68-1.24-1.013-.293-2.12-.44-3.32-.44h-4.52V91.8h1.04v-6.36h3.48c1.2 0 2.307-.133 3.32-.4 1.04-.293 1.934-.72 2.68-1.28a5.486 5.486 0 0 0 1.72-2.16c.427-.88.64-1.92.64-3.12Zm-1.12 0c0 1.147-.2 2.107-.6 2.88-.4.773-.933 1.387-1.6 1.84-.666.453-1.44.787-2.32 1-.853.187-1.76.28-2.72.28h-3.48v-12h3.48c.96 0 1.867.107 2.72.32.88.187 1.654.507 2.32.96.667.453 1.2 1.067 1.6 1.84.4.773.6 1.733.6 2.88Zm-7.24 2.96h.36c1.12 0 1.92-.253 2.4-.76.507-.533.76-1.267.76-2.2 0-.933-.253-1.653-.76-2.16-.48-.533-1.28-.8-2.4-.8h-.36v5.92Zm26.254-13.12h15.72v7h-7.2v2.96h7.08v6.64h-7.08V88h7.48v7h-16V68.32Zm13.04 23.48v-.96h-8v-8.76h7.6v-.96h-7.6v-8.64h8v-.96h-9.04V91.8h9.04Zm25.678-6.08c1.04 0 2.054-.107 3.04-.32l3.8 6.4h1.24l-4-6.72c1.44-.507 2.587-1.28 3.44-2.32.854-1.067 1.28-2.44 1.28-4.12 0-1.173-.226-2.2-.68-3.08a6.23 6.23 0 0 0-1.88-2.2c-.773-.613-1.693-1.067-2.76-1.36-1.066-.32-2.226-.48-3.48-.48h-4.32V91.8h1.04v-6.08h3.28Zm-3.28-.96V72.48h3.28c2.427 0 4.32.533 5.68 1.6 1.387 1.067 2.08 2.587 2.08 4.56 0 1.973-.693 3.493-2.08 4.56-1.36 1.04-3.253 1.56-5.68 1.56h-3.28Zm-5.04-16.44h9.2c1.707 0 3.28.227 4.72.68 1.467.453 2.734 1.12 3.8 2a8.912 8.912 0 0 1 2.48 3.28c.614 1.28.92 2.76.92 4.44 0 1.333-.186 2.467-.56 3.4-.373.933-.786 1.707-1.24 2.32a8.625 8.625 0 0 1-1.8 1.76l5 8.8h-10l-4-6.76V95h-8.52V68.32Zm8.52 13.12h.44c1.014 0 1.867-.227 2.56-.68.72-.453 1.08-1.213 1.08-2.28 0-1.067-.36-1.827-1.08-2.28-.693-.453-1.546-.68-2.56-.68h-.44v5.92Z"/>
</svg>
