<svg xmlns="http://www.w3.org/2000/svg" width="295" height="1352" fill="none" viewBox="0 0 295 1352">
  <path fill="url(#a)" fill-opacity=".7" fill-rule="evenodd" d="M253.468 1328.81c0 12.42-9.808 22.48-21.921 22.48s-21.921-10.06-21.921-22.48 9.808-22.48 21.921-22.48 21.921 10.06 21.921 22.48Z" clip-rule="evenodd" style="mix-blend-mode:lighten"/>
  <path fill="url(#b)" fill-opacity=".7" fill-rule="evenodd" d="M94.566 1329.52c0 12.42-9.808 22.48-21.921 22.48s-21.921-10.06-21.921-22.48 9.808-22.48 21.92-22.48c12.114 0 21.922 10.06 21.922 22.48Z" clip-rule="evenodd" style="mix-blend-mode:lighten"/>
  <path fill="url(#c)" fill-rule="evenodd" d="M170.454 516.723c0 12.422-9.808 22.48-21.921 22.48-12.112 0-21.921-10.058-21.921-22.48s9.809-22.48 21.921-22.48c12.113 0 21.921 10.058 21.921 22.48Z" clip-rule="evenodd"/>
  <path fill="url(#d)" fill-opacity=".5" d="M154.858 283.096c73.928 0 133.858-63.373 133.858-141.548C288.716 63.373 228.786 0 154.858 0S21 63.373 21 141.548c0 78.175 59.93 141.548 133.858 141.548Z"/>
  <path fill="url(#e)" fill-rule="evenodd" d="M133.634 526.396h29.8v1.54h-29.8v-1.54Z" clip-rule="evenodd"/>
  <path fill="url(#f)" fill-rule="evenodd" d="M217.111 1338.83h29.8v1.53h-29.8v-1.53Z" clip-rule="evenodd"/>
  <path fill="url(#g)" fill-rule="evenodd" d="M58.784 1338.83h29.8v1.53h-29.8v-1.53Z" clip-rule="evenodd"/>
  <path fill="url(#h)" fill-rule="evenodd" d="M17.331 124.944h268.292V1337.4H17.331V124.944Z" clip-rule="evenodd"/>
  <path fill="url(#i)" fill-rule="evenodd" d="M243.678 127.804h41.945v799.96H158.386l85.292-799.96Z" clip-rule="evenodd" opacity=".2"/>
  <path fill="url(#j)" fill-rule="evenodd" d="M285.117 1337.4H17.837l-.506 2.86H66.3l.616-1.43h11.01l.616 1.43h145.87l.617-1.43h11.009l.617 1.43h48.968l-.506-2.86Z" clip-rule="evenodd"/>
  <path fill="url(#k)" fill-rule="evenodd" d="M20.21 1337.12V124.505l-2.878-3.135-.226 226.608-6.753 12.22L8.12 488.256l8.986 16.07v452.973l-8.986 16.07 2.233 128.061 6.753 12.05v227.49l3.104-3.85Z" clip-rule="evenodd"/>
  <path fill="url(#l)" fill-rule="evenodd" d="M285.047 123.183v394.53l3.001 1.814V121.37l-3.001 1.813Z" clip-rule="evenodd"/>
  <path fill="url(#m)" fill-rule="evenodd" d="M282.744 1336.41V125.215l3.064-3.845v227.057l6.838 12.205 2.189 127.908-9.027 16.051v452.443l9.027 16.051-2.189 127.905-6.838 12.04v227.23l-3.064-3.85Z" clip-rule="evenodd"/>
  <path fill="url(#n)" fill-rule="evenodd" d="M17.044 121.37h268.004l-.729 3.574H17.044v-3.574Z" clip-rule="evenodd"/>
  <path fill="url(#o)" fill-rule="evenodd" d="M147.945 131.154h1.287l-1.307 3.492h1.288l1.307-3.492h31.73l.654 1.746h33.038l.653 1.746h28.76l2.178 5.819h16.757v44.753l2.179 5.819v17.192l1.307 3.491v48.351l-1.307 3.491v71.785l-2.179 5.819v49.25l2.179 5.818v87.444H250.94l-1.307 3.491H231.47l-1.307-3.491h-3.011l-1.307 3.491h-4.556l-1.307-3.491h-37.415l-1.664-12.749h-56.548l-1.664 12.749H77.987l-.653 1.745h-1.288l.654-1.745h-1.288l-1.03 2.75h-1.287l1.03-2.75h-1.287l-1.308 3.491h-1.287l1.307-3.491h-1.287l-1.308 3.491h-1.287l1.307-3.491h-1.287l-1.308 3.491h-1.287l1.307-3.491h-1.287l-1.307 3.491H49.287l-1.307-3.491h-9.19v-54.117l-1.308-3.491V298.846l1.308-3.491v-96.119l-1.03-2.751v-30.523l1.03-2.751v-28.512h10.735l2.179 5.819h7.328l2.179-5.819h24.342l2.18 5.819h18.439l2.179-5.819h20.302l.654-1.746h1.287l-.653 1.746h1.267l1.03-2.751h1.288l-1.03 2.751h1.287l1.307-3.492h1.288l-1.307 3.492h1.287l1.307-3.492h1.288l-1.308 3.492h1.288l1.307-3.492h1.288l-1.308 3.492h1.288l1.307-3.492h1.287l-1.307 3.492h1.288l1.307-3.492h1.287l-1.307 3.492h1.287l1.288-3.545Zm35.197 350.302h74.156l1.347-3.597h-74.533l-.297-2.222-1.367-10.527H122.81l-1.664 12.749H40.968V205.055l-1.346-3.597v279.998h82.475l1.664-12.749h57.717l1.664 12.749Zm1.545-5.819h78.751V142.634H41.8v332.95h78.752l1.664-12.749h60.827l1.644 12.802Zm35.85 8.041h6.061l-.911 2.433h-4.239l-.911-2.433Zm10.181 0h19.668l-.911 2.433h-17.827l-.93-2.433Zm34.899-86.227v61.787l-1.347 3.597v-68.981l1.347 3.597Zm0 65.225v18.78h-7.031l1.347-3.597h4.337v-11.585l1.347-3.598ZM39.622 198.019v-61.152h9.447l1.347 3.598h-9.448v61.205l-1.346-3.651Zm-.832 98.817v8.676l-.911 2.433v-8.676l.91-2.433Zm-.911 89.824.91 2.433v38.987l-.91-2.433V386.66Zm23.788-249.793h23.431l1.347 3.598H60.32l1.346-3.598Zm47.12 0h136.092l1.347 3.598H107.44l1.347-3.598Zm156.83 55.334V334.13l-1.347 3.597V188.603l1.347 3.598Z" clip-rule="evenodd"/>
  <path fill="url(#p)" fill-rule="evenodd" d="M147.945 525.951h1.287l-1.307 3.491h1.288l1.307-3.491h31.73l.654 1.745h33.038l.653 1.746h28.76l2.178 5.819h16.757v44.753l2.179 5.819v17.192l1.307 3.492v48.35l-1.307 3.492v71.784l-2.179 5.819v49.25l2.179 5.819v87.443H250.94l-1.307 3.491H231.47l-1.307-3.491h-3.011l-1.307 3.491h-4.556l-1.307-3.491h-37.415l-1.664-12.749h-56.548l-1.664 12.749H77.987l-.653 1.746h-1.288l.654-1.746h-1.288l-1.03 2.751h-1.287l1.03-2.751h-1.287l-1.308 3.491h-1.287l1.307-3.491h-1.287l-1.308 3.491h-1.287l1.307-3.491h-1.287l-1.308 3.491h-1.287l1.307-3.491h-1.287l-1.307 3.491H49.287l-1.307-3.491h-9.19v-54.116l-1.308-3.492V693.643l1.308-3.492v-96.118l-1.03-2.751v-30.523l1.03-2.751v-28.513h10.735l2.179 5.819h7.328l2.179-5.819h24.342l2.18 5.819h18.439l2.179-5.819h20.302l.654-1.746h1.287l-.653 1.746h1.267l1.03-2.751h1.288l-1.03 2.751h1.287l1.307-3.491h1.288l-1.307 3.491h1.287l1.307-3.491h1.288l-1.308 3.491h1.288l1.307-3.491h1.288l-1.308 3.491h1.288l1.307-3.491h1.287l-1.307 3.491h1.288l1.307-3.491h1.287l-1.307 3.491h1.287l1.288-3.544Zm35.197 350.301h74.156l1.347-3.597h-74.533l-.297-2.222-1.367-10.527H122.81l-1.664 12.749H40.968V599.852l-1.346-3.598v279.998h82.475l1.664-12.749h57.717l1.664 12.749Zm1.545-5.819h78.751V537.43H41.8v332.95h78.752l1.664-12.748h60.827l1.644 12.801Zm35.85 8.041h6.061l-.911 2.433h-4.239l-.911-2.433Zm10.181 0h19.668l-.911 2.433h-17.827l-.93-2.433Zm34.899-86.226v61.786l-1.347 3.598V788.65l1.347 3.598Zm0 65.225v18.779h-7.031l1.347-3.597h4.337V861.07l1.347-3.597ZM39.622 592.816v-61.152h9.447l1.347 3.597h-9.448v61.205l-1.346-3.65Zm-.832 98.816v8.676l-.911 2.433v-8.675l.91-2.434Zm-.911 89.824.91 2.433v38.987l-.91-2.433v-38.987Zm23.788-249.792h23.431l1.347 3.597H60.32l1.346-3.597Zm47.12 0h136.092l1.347 3.597H107.44l1.347-3.597Zm156.83 55.333v141.93l-1.347 3.597V583.4l1.347 3.597Z" clip-rule="evenodd"/>
  <path fill="url(#q)" fill-rule="evenodd" d="M146.793 939.176h1.287l-1.307 3.492h1.287l1.307-3.492h31.731l.654 1.746h33.037l.654 1.746h28.759l2.179 5.819h16.757v44.753l2.178 5.819v17.191l1.308 3.49v48.35l-1.308 3.49v71.79l-2.178 5.82v49.25l2.178 5.82v87.44h-15.528l-1.307 3.49h-18.163l-1.307-3.49H226l-1.307 3.49h-4.556l-1.307-3.49h-37.415l-1.664-12.75h-56.548l-1.664 12.75H76.835l-.654 1.75h-1.287l.653-1.75H74.26l-1.03 2.75h-1.287l1.03-2.75h-1.288l-1.307 3.49h-1.287l1.307-3.49H69.11l-1.307 3.49h-1.287l1.307-3.49h-1.288l-1.307 3.49h-1.287l1.307-3.49h-1.287l-1.308 3.49H48.135l-1.307-3.49h-9.19v-54.12l-1.308-3.49v-127.22l1.307-3.49v-96.12l-1.03-2.75v-30.526l1.03-2.751v-28.512h10.736l2.178 5.819h7.329l2.179-5.819H84.4l2.179 5.819h18.44l2.179-5.819H127.5l.653-1.746h1.288l-.654 1.746h1.268l1.03-2.751h1.287l-1.03 2.751h1.288l1.307-3.492h1.287l-1.307 3.492h1.288l1.307-3.492h1.287l-1.307 3.492h1.287l1.308-3.492h1.287l-1.307 3.492h1.287l1.308-3.492h1.287l-1.307 3.492h1.287l1.307-3.492h1.288l-1.307 3.492h1.287l1.288-3.545Zm35.196 350.304h74.157l1.347-3.6H182.96l-.297-2.22-1.367-10.53h-59.638l-1.664 12.75H39.816v-272.8l-1.347-3.6v280h82.476l1.663-12.75h57.717l1.664 12.75Zm1.545-5.82h78.752V950.655H40.648v332.955H119.4l1.664-12.75h60.826l1.644 12.8Zm35.85 8.04h6.061l-.911 2.43h-4.238l-.912-2.43Zm10.181 0h19.668l-.911 2.43h-17.826l-.931-2.43Zm34.9-86.23v61.79l-1.347 3.6v-68.98l1.347 3.59Zm0 65.23v18.78h-7.032l1.347-3.6h4.338v-11.58l1.347-3.6ZM38.469 1006.04v-61.151h9.448l1.347 3.598h-9.448v61.203l-1.347-3.65Zm-.832 98.82v8.67l-.91 2.44v-8.68l.91-2.43Zm-.91 89.82.91 2.44v38.98l-.91-2.43v-38.99Zm23.787-249.791h23.432l1.347 3.598H59.166l1.347-3.598Zm47.121 0h136.092l1.347 3.598H106.288l1.347-3.598Zm156.83 55.331v141.93l-1.347 3.6V996.625l1.347 3.595Z" clip-rule="evenodd"/>
  <path fill="url(#r)" fill-rule="evenodd" d="M282.745 123.794V1337.12l3.104 3.85v-227.45l6.753-12.23 2.233-128.135-8.986-16.079V503.837l8.986-16.079-2.233-128.133-6.753-12.059V121.281l-3.104 2.513Z" clip-rule="evenodd"/>
  <path fill="url(#s)" fill-rule="evenodd" d="m2.271 419.164-1.554-.879 6.056-3.573-1.5 2.638-3.002 1.814Z" clip-rule="evenodd"/>
  <path fill="#fff" fill-rule="evenodd" d="M273.533 149.297v3.573l4.502-4.617v-3.573l-4.502 4.617Zm0-7.09v3.573l4.502-4.617v-3.573l-4.502 4.617Zm0-7.145v3.572l4.502-4.617v-3.572l-4.502 4.617Zm-4.03 788.944v3.573l4.502-4.617v-3.573l-4.502 4.617Zm0-7.09v3.573l4.502-4.617v-3.573l-4.502 4.617Zm0-7.145v3.572l4.502-4.617v-3.572l-4.502 4.617ZM25.392 1314.55v3.57l4.502-4.61v-3.58l-4.502 4.62Zm0-7.09v3.57l4.502-4.61v-3.58l-4.502 4.62Zm0-7.14v3.57l4.502-4.62v-3.57l-4.502 4.62Zm0-784.577v3.572l4.502-4.617v-3.572l-4.502 4.617Zm0-7.091v3.573l4.502-4.617v-3.573l-4.502 4.617Zm0-7.145v3.573l4.502-4.617v-3.573l-4.502 4.617Z" clip-rule="evenodd"/>
  <path fill="url(#t)" fill-rule="evenodd" d="M116.054 124.502h60.671l-10.451-12.147-41.002 2.199-9.218 9.948Z" clip-rule="evenodd"/>
  <path fill="url(#u)" fill-rule="evenodd" d="M39.785 121.37h216.476l-20.227-33.026c-1.667-2.729-3.864-4.148-6.364-4.148H66.376c-2.538 0-4.697 1.42-6.364 4.148L39.785 121.37Z" clip-rule="evenodd"/>
  <path fill="url(#v)" fill-rule="evenodd" d="M287.926 124.228H60.501l-43.746.715v-3.574l44.482-.197 1.627-6.824 17.057-2.183 2.14 9.007h9.164c1.829 0 3.412-2.239 4.326-6.06l5.574-23.472c.691-2.894 1.873-4.586 3.233-4.586h96.321c1.383 0 2.542 1.638 3.233 4.586l5.574 23.472c.914 3.876 2.498 6.06 4.326 6.06h9.275l2.141-9.007 17.057 2.183 1.627 6.824h44.014v3.056Z" clip-rule="evenodd"/>
  <path fill="url(#w)" fill-rule="evenodd" d="m156.25 115.213 3.538 6.211h-26.799l2.894-5.112 20.367-1.099Z" clip-rule="evenodd"/>
  <path fill="url(#x)" fill-rule="evenodd" d="m155.394 116.807 1.769 3.078h-21.546l1.179-2.089 18.598-.989Z" clip-rule="evenodd"/>
  <path fill="url(#y)" fill-rule="evenodd" d="m155.019 117.577-17.794.989-.322.55h18.974l-.858-1.539Z" clip-rule="evenodd"/>
  <path fill="url(#z)" fill-rule="evenodd" d="m135.883 116.312.912 1.485-1.18 2.088-2.626 1.539 2.894-5.112Z" clip-rule="evenodd"/>
  <path fill="url(#A)" fill-rule="evenodd" d="m155.394 116.807.857-1.594 3.537 6.211-2.626-1.539-1.768-3.078Z" clip-rule="evenodd"/>
  <path fill="url(#B)" fill-rule="evenodd" d="m156.251 115.213-.857 1.594-18.598.989-.911-1.484 20.366-1.099Z" clip-rule="evenodd"/>
  <path fill="url(#C)" fill-rule="evenodd" d="M135.615 119.885h21.546l2.627 1.539h-26.799l2.626-1.539Z" clip-rule="evenodd"/>
  <path fill="url(#D)" fill-rule="evenodd" d="m215.582 113.949 21.921-3.958 2.198 3.958h-24.119Z" clip-rule="evenodd"/>
  <path fill="url(#E)" fill-rule="evenodd" d="m68.77 89.747-13.614 23.965a3.147 3.147 0 0 0 0 3.078c.536.989 1.5 1.539 2.626 1.539h184.802c1.125 0 2.036-.55 2.626-1.539.589-.99.536-2.089 0-3.078l-13.614-23.965c-.482-.879-1.125-1.539-1.929-1.978a5.228 5.228 0 0 0-2.626-.715H73.325c-.965 0-1.876.22-2.626.715a5.617 5.617 0 0 0-1.93 1.978Z" clip-rule="evenodd"/>
  <path fill="url(#F)" fill-rule="evenodd" d="M56.48 115.747h184.802l-13.614-23.964c-.428-.77-1.072-1.154-1.929-1.154H72.023c-.428 0-.803.11-1.125.275-.322.165-.59.494-.804.88l-13.613 23.963Z" clip-rule="evenodd"/>
  <path fill="url(#G)" fill-rule="evenodd" d="m229.201 94.203-1.725-2.849c-.27-.466-.701-.725-1.294-.725H71.591c-.27 0-.54.052-.755.155a1.14 1.14 0 0 0-.54.57l-1.725 2.85h160.63Z" clip-rule="evenodd"/>
  <path fill="url(#H)" fill-rule="evenodd" d="M59.36 115.511h182.175c-2.037-3.627-180.139-3.627-182.176 0Z" clip-rule="evenodd"/>
  <path fill="url(#I)" d="m68.325 93.489 24.065.11-24.172.11.107-.22Zm-1.286 2.308 25.351.11-25.512.11.161-.22Zm-1.286 2.254 26.637.11-26.798.11.16-.22Zm-1.34 2.308 27.924.11-28.085.11.16-.22Zm-1.287 2.254 29.21.165-29.37.165.16-.33Zm-1.286 2.253 30.55.165-30.71.165.16-.33Zm-1.286 2.309 31.836.165-31.997.165.16-.33Zm-1.287 2.253 33.123.165-33.283.165.16-.33Zm-1.286 2.309 34.41.165-34.57.165.16-.33Zm-1.286 2.253 35.695.165-35.91.165.215-.33Z" opacity=".5"/>
  <path fill="url(#J)" d="m228.509 94.204-24.065.11 24.172.11-.107-.22Zm1.287 2.308-25.352.11 25.512.11-.16-.22Zm1.34 2.254-26.638.11 26.798.11-.16-.22Zm1.286 2.308-27.924.11 28.085.11-.161-.22Zm1.286 2.254-29.21.164 29.371.165-.161-.329Zm1.286 2.253-30.55.165 30.711.165-.161-.33Zm1.287 2.309-31.837.164 31.998.165-.161-.329Zm1.286 2.253-33.123.165 33.284.165-.161-.33Zm1.286 2.309-34.409.164 34.57.165-.161-.329Zm1.287 2.253-35.696.165 35.91.165-.214-.33Z"/>
  <path fill="url(#K)" fill-rule="evenodd" d="m244.071 115.265-2.465-1.759H56.804l-2.626 1.539c.536.989 1.5 1.539 2.626 1.539h184.802c1.018.055 1.875-.44 2.465-1.319Z" clip-rule="evenodd"/>
  <path fill="url(#L)" fill-rule="evenodd" d="m241.946 113.822 2.465 1.759c.054-.055.107-.11.107-.22a3.147 3.147 0 0 0 0-3.078l-13.613-23.965c-.483-.879-1.126-1.538-1.93-1.978l-1.5 2.693c.321.22.589.495.804.88l.589 1.044.107.22 1.179 2.033.161.22 1.179 2.034.161.275 1.126 2.033.16.275 1.126 2.034.161.275 1.125 1.978.161.275 1.126 1.979.16.33 1.126 1.978.161.33 1.125 1.979.215.33 1.125 1.923.215.33 1.179 2.034Z" clip-rule="evenodd"/>
  <path fill="url(#M)" fill-rule="evenodd" d="M72.925 88.758h153.662c.429 0 .804.11 1.125.275l1.501-2.694a5.223 5.223 0 0 0-2.626-.714H72.925c-.965 0-1.876.22-2.626.715l1.5 2.693a2.442 2.442 0 0 1 1.126-.275Z" clip-rule="evenodd"/>
  <path fill="url(#N)" fill-rule="evenodd" d="m67.793 92.496 1.18-2.034.106-.22.59-1.044a2.52 2.52 0 0 1 .804-.88l-1.5-2.693c-.751.44-1.448 1.154-1.93 1.979l-13.614 23.964a3.147 3.147 0 0 0 0 3.078l2.627-1.539 1.179-2.089.214-.33 1.126-1.923.214-.33 1.125-1.979.161-.33 1.126-1.978.16-.33 1.126-1.979.16-.275 1.127-1.978.16-.275 1.126-2.034.16-.275 1.126-2.033.16-.275 1.18-2.034.107-.164Z" clip-rule="evenodd"/>
  <path fill="url(#O)" fill-rule="evenodd" d="m74.33 402.704 4.555-4.672h151.947v33.033l-4.556 4.672H90.944l-2.894-2.968H74.383v-30.065h-.054Zm155.001 2.638v-5.771h-5.628l5.628 5.771ZM74.329 434.253h9.326l1.447 1.484H74.329v-1.484Z" clip-rule="evenodd"/>
  <path fill="url(#P)" fill-rule="evenodd" d="m78.358 800.182 4.556-4.672h151.947v33.033l-4.556 4.672H94.973l-2.894-2.968H78.412v-30.065h-.054Zm155.002 2.638v-5.771h-5.627l5.627 5.771ZM78.358 831.731h9.326l1.447 1.484H78.358v-1.484Z" clip-rule="evenodd"/>
  <path fill="url(#Q)" fill-rule="evenodd" d="m78 1215.67 4.556-4.67h151.946v33.03l-4.555 4.68H94.615l-2.894-2.97H78.054v-30.07H78Zm155.002 2.64v-5.77h-5.628l5.628 5.77ZM78 1247.22h9.326l1.447 1.49H78v-1.49Z" clip-rule="evenodd"/>
  <path fill="url(#R)" fill-rule="evenodd" d="M154.5 372.904h91.714V159.057l-2.157-2.019H62.786v215.866H154.5ZM52 372.097v-65.36l5.915-4.904v-3.749L52 302.987v-3.75l5.915-4.903v-3.75L52 295.488v-3.75l5.915-4.903v-3.75L52 287.988v-3.749l5.915-4.904v-3.749L52 280.489v-3.75l5.915-4.903v-3.75L52 272.99v-3.75l5.915-4.903v-3.75L52 265.49v-3.749l5.915-4.904v-3.749l-4.94 4.095v-3.749l4.94-4.096v-3.75l-3.619 3v-3.75l3.619-2.999V153h188.16L257 162.057v144.391l-5.915 4.904v11.941l4.106 3.404v47.246L251.572 377H57.845L52 372.097Zm103.822-217.482H59.794v220.712h189.273V157.788l-3.897-3.23h-89.348v.057Zm-1.322 3.231h89.14l1.67 1.5v212.751H63.76V157.846h90.74Zm96.585 217.193v-49.496l2.157 1.788v45.919l-2.157 1.789Zm-193.24-38.536v-32.304l-3.966 3.288v25.786l3.966 3.23Zm197.137-98.299v20.191l-3.966 3.288v-20.191l3.966-3.288Zm0-75.455v73.898l-3.966 3.288v-80.474l3.966 3.288Z" clip-rule="evenodd"/>
  <path fill="url(#S)" fill-rule="evenodd" d="M150.5 769.904h91.714V556.057l-2.157-2.019H58.786v215.866H150.5ZM48 769.097v-65.36l5.915-4.904v-3.749L48 699.987v-3.75l5.915-4.903v-3.75L48 692.488v-3.75l5.915-4.903v-3.75L48 684.988v-3.749l5.915-4.904v-3.749L48 677.489v-3.75l5.915-4.903v-3.75L48 669.99v-3.75l5.915-4.903v-3.75L48 662.49v-3.749l5.915-4.904v-3.749l-4.94 4.095v-3.749l4.94-4.096v-3.75l-3.619 3v-3.75l3.619-2.999V550h188.16L253 559.057v144.391l-5.915 4.904v11.941l4.106 3.404v47.246L247.572 774H53.845L48 769.097Zm103.822-217.482H55.794v220.712h189.273V554.788l-3.897-3.23h-89.348v.057Zm-1.322 3.231h89.14l1.67 1.5v212.751H59.76V554.846h90.74Zm96.585 217.193v-49.496l2.157 1.788v45.919l-2.157 1.789Zm-193.24-38.536v-32.304l-3.966 3.288v25.786l3.966 3.23Zm197.137-98.299v20.191l-3.966 3.288v-20.191l3.966-3.288Zm0-75.455v73.898l-3.966 3.288v-80.474l3.966 3.288Z" clip-rule="evenodd"/>
  <path fill="url(#T)" fill-rule="evenodd" d="M150.5 1184.9h91.714V971.057l-2.157-2.019H58.786V1184.9H150.5Zm-102.5-.8v-65.36l5.915-4.91v-3.75L48 1114.99v-3.75l5.915-4.91v-3.75L48 1107.49v-3.75l5.915-4.91v-3.75L48 1099.99v-3.75l5.915-4.9v-3.75l-5.915 4.9v-3.75l5.915-4.9v-3.75l-5.915 4.9v-3.75l5.915-4.9v-3.75l-5.915 4.9v-3.75l5.915-4.9v-3.75l-4.94 4.09v-3.75l4.94-4.09v-3.75l-3.619 3v-3.75l3.619-3V965h188.16L253 974.057v144.393l-5.915 4.9v11.94l4.106 3.41v47.24l-3.619 3.06H53.845L48 1184.1Zm103.822-217.485H55.794v220.715h189.273V969.788l-3.897-3.23h-89.348v.057Zm-1.322 3.231h89.14l1.67 1.5V1184.1H59.76V969.846h90.74Zm96.585 217.194v-49.5l2.157 1.79v45.92l-2.157 1.79Zm-193.24-38.54v-32.3l-3.966 3.29v25.78l3.966 3.23Zm197.137-98.3v20.19l-3.966 3.29v-20.19l3.966-3.29Zm0-75.451v73.901l-3.966 3.28v-80.469l3.966 3.288Z" clip-rule="evenodd"/>
  <path fill="url(#U)" d="M148.599 92.774c43.243 0 78.299-.96 78.299-2.145 0-1.184-35.056-2.145-78.299-2.145-43.244 0-78.3.96-78.3 2.145 0 1.184 35.056 2.145 78.3 2.145Z"/>
  <path fill="#fff" fill-rule="evenodd" d="M25.392 922.962v-3.573l4.502 4.617v3.573l-4.502-4.617Zm0-7.145v-3.573l4.502 4.617v3.573l-4.502-4.617Zm0-7.091v-3.572l4.502 4.617v3.572l-4.502-4.617Zm245.837 404.784v-3.58l4.503 4.62v3.57l-4.503-4.61Zm0-7.15v-3.57l4.503 4.62v3.57l-4.503-4.62Zm0-7.09v-3.57l4.503 4.62v3.57l-4.503-4.62Zm2.775-795.637v3.573l-4.502-4.617v-3.573l4.502 4.617Zm0 7.145v3.573l-4.502-4.617v-3.573l4.502 4.617Zm0 7.091v3.572l-4.502-4.617v-3.572l4.502 4.617ZM29.894 135.062v3.573l-4.503-4.617v-3.573l4.503 4.617Zm0 7.146v3.572l-4.503-4.617v-3.572l4.503 4.617Zm0 7.09v3.573l-4.503-4.617v-3.573l4.503 4.617ZM154.48 89.2c27.495 0 53.543.164 76.697.438H77.783c23.154-.274 49.202-.439 76.697-.439Z" clip-rule="evenodd"/>
  <defs>
    <linearGradient id="j" x1="151.474" x2="151.474" y1="1340.26" y2="1337.39" gradientUnits="userSpaceOnUse">
      <stop stop-color="#204270"/>
      <stop offset="1" stop-color="#335D94"/>
    </linearGradient>
    <linearGradient id="k" x1="8.146" x2="20.187" y1="730.796" y2="730.796" gradientUnits="userSpaceOnUse">
      <stop stop-color="#4E76A6"/>
      <stop offset="1" stop-color="#87B5F5"/>
    </linearGradient>
    <linearGradient id="l" x1="285.05" x2="288.056" y1="320.443" y2="320.443" gradientUnits="userSpaceOnUse">
      <stop stop-color="#4E76A6"/>
      <stop offset="1" stop-color="#87B5F5"/>
    </linearGradient>
    <linearGradient id="m" x1="282.752" x2="294.847" y1="730.796" y2="730.796" gradientUnits="userSpaceOnUse">
      <stop stop-color="#335D94"/>
      <stop offset="1" stop-color="#204270"/>
    </linearGradient>
    <linearGradient id="n" x1="151.757" x2="151.757" y1="127.804" y2="124.223" gradientUnits="userSpaceOnUse">
      <stop stop-color="#204270"/>
      <stop offset="1" stop-color="#335D94"/>
    </linearGradient>
    <linearGradient id="r" x1="294.809" x2="282.769" y1="730.473" y2="730.473" gradientUnits="userSpaceOnUse">
      <stop stop-color="#4E76A6"/>
      <stop offset="1" stop-color="#87B5F5"/>
    </linearGradient>
    <linearGradient id="s" x1="3.768" x2="3.768" y1="419.163" y2="414.686" gradientUnits="userSpaceOnUse">
      <stop stop-color="#87B5F5"/>
      <stop offset="1" stop-color="#2C507A"/>
    </linearGradient>
    <linearGradient id="t" x1="146.385" x2="146.385" y1="124.497" y2="112.346" gradientUnits="userSpaceOnUse">
      <stop stop-color="#273F5E"/>
      <stop offset="1" stop-color="#4E688C"/>
    </linearGradient>
    <linearGradient id="u" x1="148.026" x2="148.026" y1="121.365" y2="84.176" gradientUnits="userSpaceOnUse">
      <stop stop-color="#273F5E"/>
      <stop offset="1" stop-color="#4E688C"/>
    </linearGradient>
    <linearGradient id="v" x1="154.035" x2="154.035" y1="124.224" y2="87.034" gradientUnits="userSpaceOnUse">
      <stop stop-color="#4E76A6"/>
      <stop offset="1" stop-color="#87B5F5"/>
    </linearGradient>
    <linearGradient id="w" x1="146.384" x2="146.384" y1="121.414" y2="115.199" gradientUnits="userSpaceOnUse">
      <stop stop-color="#6287C9"/>
      <stop offset="1" stop-color="#3B597D"/>
    </linearGradient>
    <linearGradient id="z" x1="134.885" x2="134.885" y1="121.414" y2="116.296" gradientUnits="userSpaceOnUse">
      <stop stop-color="#739CB0"/>
      <stop offset="1" stop-color="#476B96"/>
    </linearGradient>
    <linearGradient id="A" x1="157.6" x2="157.6" y1="121.414" y2="115.199" gradientUnits="userSpaceOnUse">
      <stop stop-color="#739CB0"/>
      <stop offset="1" stop-color="#476B96"/>
    </linearGradient>
    <linearGradient id="B" x1="146.075" x2="146.075" y1="117.791" y2="115.199" gradientUnits="userSpaceOnUse">
      <stop stop-color="#87B5F5"/>
      <stop offset="1" stop-color="#2C507A"/>
    </linearGradient>
    <linearGradient id="C" x1="146.384" x2="146.384" y1="121.414" y2="119.873" gradientUnits="userSpaceOnUse">
      <stop stop-color="#99B2BF"/>
      <stop offset="1" stop-color="#87B5F5"/>
    </linearGradient>
    <linearGradient id="D" x1="215.561" x2="239.715" y1="111.97" y2="111.97" gradientUnits="userSpaceOnUse">
      <stop/>
      <stop offset="1" stop-color="#56788A"/>
    </linearGradient>
    <linearGradient id="E" x1="150.16" x2="150.16" y1="118.374" y2="87.093" gradientUnits="userSpaceOnUse">
      <stop stop-color="#87B5F5"/>
      <stop offset="1" stop-color="#3A587D"/>
    </linearGradient>
    <linearGradient id="F" x1="148.859" x2="148.859" y1="115.732" y2="90.618" gradientUnits="userSpaceOnUse">
      <stop stop-color="#004DCA"/>
      <stop offset=".014" stop-color="#004BC0"/>
      <stop offset=".091" stop-color="#004392"/>
      <stop offset=".158" stop-color="#003C70"/>
      <stop offset=".214" stop-color="#00385B"/>
      <stop offset=".251" stop-color="#003754"/>
      <stop offset=".359" stop-color="#003859"/>
      <stop offset=".495" stop-color="#003B69"/>
      <stop offset=".646" stop-color="#004083"/>
      <stop offset=".808" stop-color="#0046A6"/>
      <stop offset=".976" stop-color="#004FD4"/>
      <stop offset="1" stop-color="#0050DB"/>
    </linearGradient>
    <linearGradient id="G" x1="148.889" x2="148.889" y1="94.192" y2="90.62" gradientUnits="userSpaceOnUse">
      <stop/>
      <stop offset="1" stop-color="#1068FF"/>
    </linearGradient>
    <linearGradient id="H" x1="150.451" x2="150.451" y1="115.495" y2="112.778" gradientUnits="userSpaceOnUse">
      <stop stop-color="#1068FF"/>
      <stop offset="1"/>
    </linearGradient>
    <linearGradient id="I" x1="56.484" x2="92.377" y1="103.92" y2="103.92" gradientUnits="userSpaceOnUse">
      <stop offset="0" stop-color="#0098CF"/>
      <stop offset="1"/>
    </linearGradient>
    <linearGradient id="J" x1="204.465" x2="240.358" y1="104.635" y2="104.635" gradientUnits="userSpaceOnUse">
      <stop offset="0"/>
      <stop offset="1" stop-color="#0098CF"/>
    </linearGradient>
    <linearGradient id="K" x1="149.12" x2="149.12" y1="116.629" y2="113.545" gradientUnits="userSpaceOnUse">
      <stop stop-color="#ADC9D9"/>
      <stop offset="1" stop-color="#4597ED"/>
    </linearGradient>
    <linearGradient id="L" x1="236.267" x2="236.267" y1="115.545" y2="86.31" gradientUnits="userSpaceOnUse">
      <stop stop-color="#739CB0"/>
      <stop offset="1" stop-color="#476B96"/>
    </linearGradient>
    <linearGradient id="M" x1="149.76" x2="149.76" y1="89.038" y2="85.664" gradientUnits="userSpaceOnUse">
      <stop stop-color="#4680B0"/>
      <stop offset="1" stop-color="#2C507A"/>
    </linearGradient>
    <linearGradient id="N" x1="61.742" x2="61.742" y1="114.683" y2="85.65" gradientUnits="userSpaceOnUse">
      <stop stop-color="#739CB0"/>
      <stop offset="1" stop-color="#476B96"/>
    </linearGradient>
    <linearGradient id="O" x1="198.619" x2="104.212" y1="464.121" y2="372.062" gradientUnits="userSpaceOnUse">
      <stop stop-color="#4B90FD"/>
      <stop offset="1" stop-color="#87B5F5"/>
    </linearGradient>
    <linearGradient id="P" x1="202.649" x2="108.241" y1="861.6" y2="769.541" gradientUnits="userSpaceOnUse">
      <stop stop-color="#4B90FD"/>
      <stop offset="1" stop-color="#87B5F5"/>
    </linearGradient>
    <linearGradient id="Q" x1="202.29" x2="107.883" y1="1277.09" y2="1185.03" gradientUnits="userSpaceOnUse">
      <stop stop-color="#4B90FD"/>
      <stop offset="1" stop-color="#87B5F5"/>
    </linearGradient>
    <radialGradient id="a" cx="0" cy="0" r="1" gradientTransform="matrix(21.943 0 0 22.5028 231.541 1328.82)" gradientUnits="userSpaceOnUse">
      <stop stop-color="#00AAE0"/>
      <stop offset=".267" stop-color="#018CDA"/>
      <stop offset=".525" stop-color="#055583"/>
      <stop offset=".74" stop-color="#03334E"/>
      <stop offset=".905" stop-color="#00060B"/>
      <stop offset="1"/>
    </radialGradient>
    <radialGradient id="b" cx="0" cy="0" r="1" gradientTransform="matrix(21.943 0 0 22.5028 72.638 1329.53)" gradientUnits="userSpaceOnUse">
      <stop stop-color="#00AAE0"/>
      <stop offset=".267" stop-color="#018CDA"/>
      <stop offset=".525" stop-color="#055583"/>
      <stop offset=".74" stop-color="#03334E"/>
      <stop offset=".905" stop-color="#00060B"/>
      <stop offset="1"/>
    </radialGradient>
    <radialGradient id="c" cx="0" cy="0" r="1" gradientTransform="matrix(21.943 0 0 22.5027 148.527 516.732)" gradientUnits="userSpaceOnUse">
      <stop stop-color="#00AAE0"/>
      <stop offset=".267" stop-color="#018CDA"/>
      <stop offset=".525" stop-color="#055583"/>
      <stop offset=".74" stop-color="#03334E"/>
      <stop offset=".905" stop-color="#00060B"/>
      <stop offset="1"/>
    </radialGradient>
    <radialGradient id="d" cx="0" cy="0" r="1" gradientTransform="matrix(133.849 0 0 141.539 154.876 141.539)" gradientUnits="userSpaceOnUse">
      <stop stop-color="#03050B"/>
      <stop offset=".108" stop-color="#1757D5"/>
      <stop offset=".288" stop-color="#103D95"/>
      <stop offset=".46" stop-color="#0B2760"/>
      <stop offset=".619" stop-color="#061636"/>
      <stop offset=".763" stop-color="#030A19" stop-opacity=".37"/>
      <stop offset=".886" stop-color="#010306" stop-opacity=".31"/>
      <stop offset=".974" stop-color="#010206" stop-opacity=".1"/>
    </radialGradient>
    <radialGradient id="e" cx="0" cy="0" r="1" gradientTransform="matrix(0 .76952 -14.8999 0 148.534 527.166)" gradientUnits="userSpaceOnUse">
      <stop stop-color="#fff"/>
      <stop offset="1" stop-color="#87B5F5"/>
    </radialGradient>
    <radialGradient id="f" cx="0" cy="0" r="1" gradientTransform="matrix(0 .76952 -14.8999 0 232.011 1339.59)" gradientUnits="userSpaceOnUse">
      <stop stop-color="#fff"/>
      <stop offset="1" stop-color="#87B5F5"/>
    </radialGradient>
    <radialGradient id="g" cx="0" cy="0" r="1" gradientTransform="matrix(0 .76952 -14.8999 0 73.684 1339.59)" gradientUnits="userSpaceOnUse">
      <stop stop-color="#fff"/>
      <stop offset="1" stop-color="#87B5F5"/>
    </radialGradient>
    <radialGradient id="h" cx="0" cy="0" r="1" gradientTransform="matrix(138.849 0 0 1055.39 150.95 114.041)" gradientUnits="userSpaceOnUse">
      <stop stop-color="#0056BF"/>
      <stop offset=".135" stop-color="#02429F"/>
      <stop offset=".286" stop-color="#043183"/>
      <stop offset=".417" stop-color="#052671"/>
      <stop offset=".513" stop-color="#05226B"/>
      <stop offset=".62" stop-color="#072060"/>
      <stop offset=".835" stop-color="#091D50"/>
      <stop offset="1" stop-color="#0A1C4A"/>
    </radialGradient>
    <radialGradient id="i" cx="0" cy="0" r="1" gradientTransform="matrix(141.257 0 0 1168.35 192.787 -147.329)" gradientUnits="userSpaceOnUse">
      <stop offset="0" stop-color="#284580"/>
      <stop offset="1"/>
    </radialGradient>
    <radialGradient id="o" cx="0" cy="0" r="1" gradientTransform="matrix(263.343 0 0 703.332 38.65 134.666)" gradientUnits="userSpaceOnUse">
      <stop stop-color="#67DBFF"/>
      <stop offset="1" stop-color="#0068DE"/>
    </radialGradient>
    <radialGradient id="p" cx="0" cy="0" r="1" gradientTransform="matrix(263.343 0 0 703.332 38.65 529.462)" gradientUnits="userSpaceOnUse">
      <stop stop-color="#67DBFF"/>
      <stop offset="1" stop-color="#0068DE"/>
    </radialGradient>
    <radialGradient id="q" cx="0" cy="0" r="1" gradientTransform="matrix(263.343 0 0 703.332 37.498 942.688)" gradientUnits="userSpaceOnUse">
      <stop stop-color="#67DBFF"/>
      <stop offset="1" stop-color="#0068DE"/>
    </radialGradient>
    <radialGradient id="x" cx="0" cy="0" r="1" gradientTransform="matrix(7.69864 0 0 7.89492 146.385 118.33)" gradientUnits="userSpaceOnUse">
      <stop stop-color="#fff"/>
      <stop offset="1" stop-color="#87B5F5"/>
    </radialGradient>
    <radialGradient id="y" cx="0" cy="0" r="1" gradientTransform="matrix(6.71995 0 0 6.89139 146.386 118.342)" gradientUnits="userSpaceOnUse">
      <stop stop-color="#fff"/>
      <stop offset="1"/>
    </radialGradient>
    <radialGradient id="R" cx="0" cy="0" r="1" gradientTransform="matrix(250.399 0 0 207.583 53.604 152.128)" gradientUnits="userSpaceOnUse">
      <stop stop-color="#67DBFF"/>
      <stop offset="1" stop-color="#0068DE"/>
    </radialGradient>
    <radialGradient id="S" cx="0" cy="0" r="1" gradientTransform="matrix(250.399 0 0 207.583 49.604 549.128)" gradientUnits="userSpaceOnUse">
      <stop stop-color="#67DBFF"/>
      <stop offset="1" stop-color="#0068DE"/>
    </radialGradient>
    <radialGradient id="T" cx="0" cy="0" r="1" gradientTransform="matrix(250.399 0 0 207.583 49.604 964.128)" gradientUnits="userSpaceOnUse">
      <stop stop-color="#67DBFF"/>
      <stop offset="1" stop-color="#0068DE"/>
    </radialGradient>
    <radialGradient id="U" cx="0" cy="0" r="1" gradientTransform="matrix(78.3315 0 0 2.12936 148.575 90.62)" gradientUnits="userSpaceOnUse">
      <stop stop-color="#00EAFF"/>
      <stop offset=".129" stop-color="#00BDCE"/>
      <stop offset=".307" stop-color="#008490"/>
      <stop offset=".478" stop-color="#00555D"/>
      <stop offset=".638" stop-color="#003034"/>
      <stop offset=".782" stop-color="#001618"/>
      <stop offset=".908" stop-color="#000606"/>
      <stop offset="1"/>
    </radialGradient>
  </defs>
</svg>
